<svg version="1.1" id="Слой_1" xmlns="http://www.w3.org/2000/svg" x="0" y="0" viewBox="0 0 85.039 85.039" xml:space="preserve"><style>.st1{fill:#e7e7c6}.st2{fill:#989898}</style><path d="M42.687 83.202c-22.709 0-41.185-18.476-41.185-41.185S19.978.832 42.687.832s41.185 18.476 41.185 41.185-18.476 41.185-41.185 41.185zm0-79.37c-21.055 0-38.185 17.13-38.185 38.185s17.13 38.185 38.185 38.185 38.185-17.13 38.185-38.185S63.742 3.832 42.687 3.832z" fill="#b8d270"/><path id="XMLID_57_" class="st1" d="M32.602 59.134h-2.489V56.76H28.16v2.374h-2.489v1.953h2.489v2.374h1.953v-2.374h2.489z"/><path id="XMLID_47_" class="st1" d="M29.845 48.714l5.293-1.688 4.553 10.597z"/><path id="XMLID_45_" class="st1" d="M49.733 46.961l5.808 1.813-9.893 9.135z"/><path id="XMLID_42_" class="st1" d="M52.547 28.198c.732-6.511-4.48-11.975-10.241-11.867-5.631.105-10.572 5.511-9.846 11.867 0 0 5.186-1.099 6.285-7.164.19-.491.67-.81 1.187-.791.486.017.921.33 1.099.791a7.976 7.976 0 0 0 1.275 2.813c1.071 1.49 2.377 2.183 3.428 2.725 2.562 1.321 5.078 1.61 6.813 1.626z"/><path id="XMLID_41_" class="st1" d="M37.606 14.511c.226-.267 2.089-2.395 5.128-2.287 2.787.099 4.434 2.004 4.689 2.31a12.248 12.248 0 0 0-9.817-.023z"/><path class="st2" d="M30.775 31.471a.588.588 0 0 0 .541-.631 46.017 46.017 0 0 1-.138-3.541c0-4.289 2.222-8.042 5.577-10.122.027-.017.055-.031.078-.052a11.434 11.434 0 0 1 5.462-1.664c.104-.006.251-.009.418 0 2 .088 3.857.688 5.462 1.666.02.018.045.029.067.044 3.358 2.079 5.583 5.834 5.583 10.127 0 1.163-.046 2.354-.138 3.541a.588.588 0 0 0 1.172.09c.094-1.216.142-2.438.142-3.631 0-4.557-2.289-8.559-5.775-10.886a4.06 4.06 0 0 0 .076-.737c0-2.858-3.052-5.183-6.802-5.183-3.747 0-6.795 2.325-6.795 5.183 0 .247.03.492.075.736-3.488 2.327-5.777 6.33-5.777 10.887 0 1.193.047 2.415.141 3.631a.59.59 0 0 0 .631.542zm6.105-15.795c0-2.21 2.521-4.008 5.621-4.008 3.103 0 5.626 1.798 5.626 4.008 0 .026-.005.052-.006.078a12.567 12.567 0 0 0-5.353-1.465c-.072-.003-.148-.007-.246-.008h-.038c-.019 0-.039-.001-.059.001a12.586 12.586 0 0 0-5.54 1.472c0-.027-.005-.052-.005-.078z"/><path class="st2" d="M65.113 55.213c-.11-2.67-1.573-5.108-3.816-6.362a7.588 7.588 0 0 0-2.006-.774l-1.326-.377h-.001l-8.761-2.734a.588.588 0 0 0-.726.355l-.081.218a3.201 3.201 0 0 1-.807-.949 3.31 3.31 0 0 1-.393-1.747c.093-.079.183-.158.267-.235.118-.107.223-.21.332-.314l.086-.082c.03-.029.067-.061.095-.09.049-.049.083-.088.129-.135.138-.14.265-.273.378-.396l.049-.052.149-.166.091-.107.071-.083a9.646 9.646 0 0 0 .319-.39c.127-.171.253-.341.362-.503a15.846 15.846 0 0 0 .644-1.023c.061-.108.109-.214.167-.321.093-.172.182-.342.267-.512.044-.089.096-.177.139-.266l.158-.35c.016-.036.028-.068.043-.104.028-.064.052-.126.079-.189l.021-.049c.026-.061.047-.126.072-.188.095-.238.191-.475.271-.705.048-.137.092-.281.137-.422.069-.214.138-.426.196-.631l.017-.056.161-.598.002-.01c.095-.375.174-.721.244-1.046l.013-.055.032-.154.073-.344.004-.024a.772.772 0 0 0 .017-.108c.005-.027.007-.055.012-.081.174-.913.271-1.862.271-2.832v-.283a.587.587 0 0 0-.581-.587 22.488 22.488 0 0 1-1.785-.092l-.072-.007a18.062 18.062 0 0 1-1.54-.213l-.111-.021c-.409-.078-.79-.172-1.16-.272l-.438-.127a12.793 12.793 0 0 1-.837-.286c-.06-.022-.122-.048-.254-.102-.049-.017-.099-.04-.149-.061a11.417 11.417 0 0 1-1.185-.59c-.046-.026-.089-.053-.133-.08l-.081-.048-.09-.054c-.043-.025-.086-.05-.124-.079l-.099-.066-.097-.062c-.093-.062-.189-.131-.289-.201-.069-.05-.135-.101-.201-.152l-.102-.083c-.054-.042-.11-.084-.208-.17l-.085-.071c-.077-.071-.155-.143-.186-.165-.016-.016-.038-.035-.061-.055a.065.065 0 0 0-.009-.008c-.09-.085-.17-.166-.253-.248a4.9 4.9 0 0 1-.219-.235c-.098-.103-.18-.2-.273-.315a6.504 6.504 0 0 1-.219-.271l-.028-.042a9.109 9.109 0 0 1-.427-.62 4.575 4.575 0 0 1-.116-.198 5.234 5.234 0 0 1-.13-.242l-.108-.205a1.14 1.14 0 0 0-.061-.127 2.576 2.576 0 0 0-.051-.121l-.085-.189-.051-.125-.22-.664-.017-.064-.007-.026-.025-.119c-.006-.037-.024-.068-.036-.101-.005-.013-.008-.027-.014-.04a.569.569 0 0 0-.114-.167l-.005-.006a.575.575 0 0 0-.407-.175c-.24-.04-.446.136-.537.36-.007.016-.011.032-.017.049-.008.026-.023.05-.027.077v.002c0 .003-.002.005-.003.007-.084.411-.441 1.842-1.537 3.402l-.204.279c-.146.192-.302.385-.463.572l-.172.19a10.47 10.47 0 0 1-.373.38c-.06.06-.127.119-.192.179-.062.056-.127.112-.191.168-.146.129-.3.255-.462.379-.072.056-.147.11-.222.165a10.3 10.3 0 0 1-.63.421c-.111.069-.218.139-.335.206-.219.125-.447.237-.677.347-.089.043-.17.09-.263.131a.588.588 0 0 0-.348.537v.384l.001.019a16.684 16.684 0 0 0 .068 1.487l.001.009c.035.366.095.708.156 1.051.024.138.033.277.061.414a22.845 22.845 0 0 0 .292 1.242l.194.688.04.123a.771.771 0 0 0 .009.026c.025.08.051.166.075.233.058.185.116.364.172.517.057.177.12.348.186.527.071.186.144.359.216.536l.068.168c.03.072.059.149.089.22.005.017.012.033.019.049.134.313.274.621.416.92.098.204.202.403.305.601l.012.024c.031.06.06.123.092.181l.002.006a21.706 21.706 0 0 0 .947 1.639l.172.232c.123.169.263.351.41.525.072.088.165.176.243.266.077.086.154.17.232.253.082.086.15.176.237.258.029.029.059.056.089.084.047.423.043.994-.176 1.618-.29.825-.826 1.364-1.264 1.701l-.201-.468a.583.583 0 0 0-.718-.328l-8.219 2.62-1.278.407a7.664 7.664 0 0 0-2.035.782c-2.244 1.254-3.707 3.692-3.817 6.383l-.041 6.392a8.359 8.359 0 0 0 2.446 5.988 8.36 8.36 0 0 0 5.971 2.484h28.099c2.259 0 4.38-.883 5.972-2.485s2.461-3.729 2.446-5.987l-.044-6.414zm-8.454-6.691l-4.198 3.876-8.19 7.562 4.882-13.087.004-.011.227-.61 7.275 2.27zM42.865 65.58a.502.502 0 0 1 0 1.002.502.502 0 0 1 0-1.002zm-.043-5.098l-5.409-12.588c1.183.711 2.956 1.471 5.194 1.471a10.008 10.008 0 0 0 4.826-1.242l-4.611 12.359zm.524-16.874c-.306.039-.685.04-.941.002a6.783 6.783 0 0 1-.799-.207 7.177 7.177 0 0 1-2.297-1.268 8.57 8.57 0 0 1-.812-.766 7.89 7.89 0 0 1-.217-.237 9.793 9.793 0 0 1-.715-.892 23.19 23.19 0 0 1-.956-1.669l-.064-.125a22.255 22.255 0 0 1-.735-1.588c-.035-.083-.068-.169-.102-.253a21.248 21.248 0 0 1-.574-1.601l-.036-.112a20.836 20.836 0 0 1-.445-1.718c-.008-.039-.019-.076-.027-.116l-.001-.002-.016-.083c-.026-.122-.035-.253-.057-.377-.056-.323-.115-.647-.145-.971a14.727 14.727 0 0 1-.064-1.388v-.025c.377-.182.738-.387 1.086-.605.127-.079.239-.163.36-.245.15-.102.307-.197.449-.306.037-.027.069-.058.105-.086.143-.11.276-.222.41-.335.073-.063.154-.121.225-.185.084-.076.174-.16.276-.256.05-.048.101-.095.149-.143l.063-.061c.155-.155.298-.314.45-.485l.034-.042c.152-.175.289-.348.423-.523.021-.028.045-.054.066-.082l.052-.072a11.406 11.406 0 0 0 1.361-2.379c.02.043.035.082.06.131l.07.125c.044.089.094.177.151.28.04.074.085.148.146.249.134.211.284.435.455.663l.026.037c.089.119.185.238.275.344.103.127.207.249.308.354a8.208 8.208 0 0 0 .608.612c.064.054.128.114.204.184.056.049.113.098.121.099.076.07.158.135.247.204.066.055.133.11.271.213.121.086.247.175.381.265l.143.091c.084.063.175.12.207.132.071.056.148.099.228.14l.055.035c.258.15.53.299.809.433l.164.082a.097.097 0 0 0 .011.005c.022.012.045.021.067.03l.228.098c.102.044.203.088.326.133.086.036.169.071.227.09.114.048.236.094.281.1.034.015.071.028.124.046.07.031.141.061.218.083l.043.011.679.201a.996.996 0 0 0 .136.034c.115.035.237.064.365.095.23.057.472.109.704.152l.433.083c.257.04.519.078.77.11.104.016.205.027.308.039l.117.013c.069.008.14.013.21.02l.021.002c.069.006.137.014.208.019l.437.035c.048 0 .096.005.152.01l.209.01c.087.008.177.011.27.014l.059.002a13.92 13.92 0 0 1-.254 2.393l-.001.006-.008.05-.008.052-.009.039-.073.354a27.091 27.091 0 0 1-.271 1.173l-.157.582c-.09.325-.187.637-.293.942l-.005.017c-.107.308-.223.61-.35.91-.037.093-.075.189-.122.294-.077.174-.163.349-.249.525-.095.193-.198.388-.305.585a13.504 13.504 0 0 1-1.116 1.727 12.766 12.766 0 0 1-.851.956c-.295.303-.649.641-1.052.972-.748.614-1.479 1.059-2.173 1.322-.367.137-.742.194-.741.194-.001 0-.001 0 0 0zm-4.444.917a4.76 4.76 0 0 0 .234-1.059 8.27 8.27 0 0 0 2.105 1.054c.322.104.637.184.962.247a4.377 4.377 0 0 0 1.302.005c.021-.003.504-.074.998-.262a8.094 8.094 0 0 0 1.575-.832 4.4 4.4 0 0 0 .482 1.476 4.377 4.377 0 0 0 1.204 1.376 8.898 8.898 0 0 1-4.903 1.655c-2.443.057-4.307-.908-5.346-1.625a4.822 4.822 0 0 0 1.387-2.035zm2.353 15.288l-4.762-4.309-7.772-7.033 6.738-2.148 5.796 13.49zm20.619 6.971a7.19 7.19 0 0 1-5.138 2.138H28.637a7.19 7.19 0 0 1-5.137-2.138 7.189 7.189 0 0 1-2.105-5.151l.04-6.371c.094-2.266 1.326-4.329 3.216-5.386a6.702 6.702 0 0 1 1.771-.675l1.004-.318 14.845 13.434.002 2.201a1.676 1.676 0 0 0-1.085 1.564c0 .925.752 1.677 1.676 1.677s1.676-.752 1.676-1.677c0-.719-.456-1.328-1.092-1.566v-2.197l11.518-10.634 2.995-2.765 1.039.295c.604.138 1.184.36 1.723.661 1.891 1.057 3.123 3.12 3.216 5.365l.04 6.392a7.195 7.195 0 0 1-2.105 5.151z"/></svg>