<svg version="1.1" id="Слой_1" xmlns="http://www.w3.org/2000/svg" x="0" y="0" viewBox="0 0 85.039 85.039" xml:space="preserve"><style>.st1{fill:#989898}.st2{fill:#e7e7c6}</style><path d="M42.687 83.203c-22.709 0-41.185-18.476-41.185-41.185S19.978.833 42.687.833s41.185 18.476 41.185 41.185-18.476 41.185-41.185 41.185zm0-79.37c-21.055 0-38.185 17.13-38.185 38.185s17.13 38.185 38.185 38.185 38.185-17.13 38.185-38.185S63.742 3.833 42.687 3.833z" fill="#b8d270"/><path class="st1" d="M70.548 18.428a.586.586 0 0 0-.586-.633H48.753a.587.587 0 0 0-.585.641l3.74 40.308v7.741c0 .324.264.588.588.588H66.73a.589.589 0 0 0 .588-.588V58.92c.018-.049.038-.098.042-.153l3.188-40.339zm-4.317 39.705h-13.2l-3.286-35.421H69.03l-2.799 35.421zM53.147 18.969v1.042a.587.587 0 0 0 1.176 0v-1.042h4.352v1.042a.587.587 0 0 0 1.176 0v-1.042h4.352v1.042a.587.587 0 0 0 1.176 0v-1.042h3.948l-.203 2.568H49.636l-.238-2.568h3.749zm-.063 46.927v-6.588h13.059v6.588H53.084z"/><path id="XMLID_78_" class="st2" d="M61.584 34.815c.438.677.477.766.927 1.549 1.008 1.754 1.881 3.593 1.881 4.705a4.71 4.71 0 0 1-4.705 4.705 4.71 4.71 0 0 1-4.705-4.705c0-2.323 3.807-7.819 4.705-9.082l1.897 2.828z"/><g id="XMLID_72_"><path class="st1" d="M23.407 68.219c-1.142 0-2.265-.145-3.359-.434-.709-.188-2.028-.539-3.446-1.512-1.508-1.036-2.325-2.216-2.764-2.85-1.152-1.662-1.894-3.566-2.206-5.658a.587.587 0 0 1 1.008-.491 7.446 7.446 0 0 0 2.417 1.724c.966.422 1.768.508 2.543.59.857.092 1.744.186 2.691.748 1.1.652 1.956 1.747 2.543 3.253a.588.588 0 0 1-.176.669c-.075.062-1.886 1.48-5.164-.846a.588.588 0 0 1 .68-.959c1.702 1.208 2.804 1.197 3.348 1.058-.469-.994-1.083-1.721-1.831-2.165-.727-.431-1.417-.504-2.216-.589-.824-.088-1.757-.188-2.889-.683a8.13 8.13 0 0 1-1.429-.805 11.829 11.829 0 0 0 1.646 3.484c.424.612 1.133 1.637 2.463 2.551 1.25.858 2.396 1.162 3.082 1.344 1.741.462 3.568.52 5.431.173a.587.587 0 1 1 .215 1.155c-.869.162-1.733.243-2.587.243zm11.742-1.172c-2.896 0-4.958-.726-6.838-2.396a22.733 22.733 0 0 1-4.388-5.274c-1.269-2.113-2.138-4.412-2.513-6.648-.174-1.04-.231-2.089-.286-3.104-.077-1.423-.15-2.768-.521-4.093-.833-2.99-2.76-5.772-5.737-8.293.767 2.127 1.002 4.464.644 6.685-.061.363-.136.724-.21 1.084-.194.934-.378 1.814-.301 2.688.141 1.598 1.273 3.085 2.769 3.652.047-.068.23-.333.439-1.216.342-1.465-.504-3.292-1.04-4.251a.587.587 0 1 1 1.027-.572c.755 1.353 1.569 3.332 1.159 5.087-.145.608-.478 2.015-1.449 2.138a1.06 1.06 0 0 1-.425-.041c-2-.701-3.465-2.586-3.65-4.693-.092-1.047.118-2.056.321-3.031.072-.345.144-.689.201-1.035a12.308 12.308 0 0 0-1.561-8.153.587.587 0 0 1 .844-.78c4.301 3.058 7.026 6.563 8.101 10.416.406 1.449.485 2.922.563 4.346.053.982.108 1.997.272 2.973.351 2.093 1.167 4.249 2.361 6.237.083.139.171.281.259.416a.955.955 0 0 1 .058.104c.994 1.566 2.336 3.141 3.845 4.48 1.74 1.545 3.591 2.167 6.393 2.097l.172-.003c2.192-.044 4.375-.088 6.567-.088h7.213a.589.589 0 0 1 0 1.176h-7.213c-2.185 0-4.359.043-6.543.087l-.172.004-.361.001z"/><path class="st1" d="M22.694 44.485a.587.587 0 0 1-.58-.689 3.682 3.682 0 0 1 3.619-2.986H47.71a.588.588 0 0 1 0 1.174H25.734c-.585 0-1.151.202-1.594.569a2.466 2.466 0 0 0-.867 1.444.588.588 0 0 1-.579.488zm6.083-5.285a.587.587 0 0 1-.587-.587v-3.529a5.46 5.46 0 0 1 5.454-5.453h13.438a.588.588 0 0 1 0 1.174H33.644a4.284 4.284 0 0 0-4.279 4.278v3.529a.588.588 0 0 1-.588.588z"/></g><g id="XMLID_60_"><path class="st1" d="M46.974 54.973a.58.58 0 0 0 .299-.116 4.11 4.11 0 0 0 .822-.863c.713-1.005.943-2.273.687-3.768a5.86 5.86 0 0 0-1.011-2.41.587.587 0 0 0-.453-.247c-1.231-.061-2.245.105-3.092.406a.595.595 0 0 0-.023-.182 4.27 4.27 0 0 0-.533-1.063c-.703-1.009-1.815-1.655-3.313-1.924a5.865 5.865 0 0 0-2.614.137.587.587 0 0 0-.385.342c-.572 1.39-.723 2.59-.629 3.625a.621.621 0 0 0-.549-.328c-.406.018-.8.091-1.171.218-1.162.397-2.091 1.289-2.762 2.655a5.864 5.864 0 0 0-.591 2.548.589.589 0 0 0 .223.466c1.012.801 1.978 1.273 2.877 1.513a.57.57 0 0 0-.161.252c-.113.392-.169.79-.166 1.181.004 1.231.553 2.396 1.634 3.464a5.867 5.867 0 0 0 2.225 1.372.579.579 0 0 0 .512-.063c1.158-.753 1.935-1.576 2.45-2.407a.585.585 0 0 0 .254.382 4.169 4.169 0 0 0 2.288.686c.826 0 1.689-.239 2.58-.716a5.876 5.876 0 0 0 1.97-1.719.586.586 0 0 0 .093-.509c-.354-1.254-.867-2.208-1.461-2.932zm-.003-6.239c.331.527.55 1.096.652 1.691.202 1.176.038 2.147-.488 2.89a2.887 2.887 0 0 1-.592.62.586.586 0 0 0-.213.377c-1.509-1.347-3.322-1.561-4.473-1.524a1.359 1.359 0 0 0-.315-.345c.498-1.584 1.858-3.735 5.429-3.709zm-6.428 4.682a.191.191 0 0 1 .173-.097.28.28 0 0 1 .048.005c.09.026.131.101.14.159a.197.197 0 0 1-.106.201c-.031.014-.081.028-.223-.036-.038-.04-.072-.111-.032-.232zm-2.206-7.411a4.675 4.675 0 0 1 1.817-.041c1.175.21 2.033.693 2.55 1.437.161.231.29.49.384.77a.57.57 0 0 0 .174.245c-1.764 1.006-2.543 2.672-2.875 3.78a1.355 1.355 0 0 0-.402.174c-1.323-1.004-2.91-2.996-1.648-6.365zm-5.033 5.963c.196-.399.794-1.615 2.085-2.058a2.99 2.99 0 0 1 .842-.155.58.58 0 0 0 .539-.472c.32 2.06 1.647 3.387 2.591 4.088-.018.18-.005.358.046.53-1.332.993-3.68 1.964-6.566-.175a4.665 4.665 0 0 1 .463-1.758zm5.1 9.07a4.655 4.655 0 0 1-1.516-.996c-.849-.839-1.281-1.725-1.284-2.635a2.94 2.94 0 0 1 .12-.848.58.58 0 0 0-.038-.409 5.8 5.8 0 0 0 .596.035c1.729-.001 3.102-.785 3.924-1.415.043.017.083.042.127.055.109.032.221.043.332.047.518 1.579.688 4.112-2.261 6.166zm7.414-1.941c-1.051.561-2.024.713-2.895.446a3.02 3.02 0 0 1-.777-.365.58.58 0 0 0-.552-.036c.853-1.843.525-3.644.153-4.74.111-.129.193-.279.25-.441 1.662-.024 4.133.552 5.223 3.981a4.685 4.685 0 0 1-1.402 1.155z"/><path id="XMLID_65_" class="st2" d="M40.07 52.123c-.685-.623-1.034-1.236-1.227-1.709-.698-1.709-.298-3.901-.298-3.901s2.223-.454 3.522 1.206l-.577.042c-1.255.091-2.172 1.242-1.955 2.481l.005.028c.131.734.332 1.358.53 1.853z"/><path id="XMLID_64_" class="st2" d="M41.957 52.423c.369-.849.837-1.377 1.222-1.712 1.394-1.211 3.598-1.538 3.598-1.538s1.146 1.958-.008 3.723l-.225-.533c-.49-1.158-1.875-1.656-2.978-1.052l-.025.014a9.4 9.4 0 0 0-1.584 1.098z"/><path id="XMLID_63_" class="st2" d="M42.244 54.378c.918.121 1.554.425 1.983.703 1.548 1.006 2.47 3.035 2.47 3.035s-1.567 1.641-3.581 1.018l.45-.363c.978-.79 1.075-2.259.191-3.153l-.02-.02a9.52 9.52 0 0 0-1.493-1.22z"/><path id="XMLID_62_" class="st2" d="M40.53 55.209c.185.907.106 1.608-.017 2.104-.445 1.792-2.061 3.326-2.061 3.326s-2.063-.945-2.133-3.052l.491.306c1.067.666 2.486.278 3.042-.85l.012-.025a9.46 9.46 0 0 0 .666-1.809z"/><path id="XMLID_61_" class="st2" d="M39.186 53.871c-.794.476-1.481.634-1.99.683-1.838.176-3.822-.838-3.822-.838s.205-2.259 2.169-3.026l-.126.565c-.274 1.228.564 2.437 1.813 2.586l.028.003a9.49 9.49 0 0 0 1.928.027z"/></g><path id="XMLID_59_" class="st2" d="M48.312 31.738H33.678c-.78 0-1.557.231-2.164.723-.56.453-1.053 1.165-.992 2.255v4.366h18.559l-.769-7.344z"/></svg>