<svg version="1.1" id="Слой_1" xmlns="http://www.w3.org/2000/svg" x="0" y="0" viewBox="0 0 85.039 85.039" xml:space="preserve"><style>.st1{fill:#989898}.st2{fill:#e7e7c6}</style><path d="M42.254 83.202c-22.709 0-41.185-18.476-41.185-41.185S19.545.832 42.254.832s41.185 18.476 41.185 41.185-18.475 41.185-41.185 41.185zm0-79.37c-21.055 0-38.185 17.13-38.185 38.185s17.13 38.185 38.185 38.185 38.185-17.13 38.185-38.185S63.31 3.832 42.254 3.832z" fill="#b8d270"/><g id="XMLID_5_"><path class="st1" d="M42.442 59.517c-8.944 0-16.221-7.277-16.221-16.221 0-8.944 7.276-16.221 16.221-16.221 8.944 0 16.221 7.276 16.221 16.221 0 8.943-7.277 16.221-16.221 16.221zm0-31.267c-8.296 0-15.046 6.75-15.046 15.046s6.75 15.045 15.046 15.045 15.045-6.749 15.045-15.045S50.738 28.25 42.442 28.25z"/><path class="st1" d="M63.704 40.723a.587.587 0 0 1-.35-1.06c1.566-1.159 2.804-2.576 3.677-4.212.343-.643.917-1.72 1.147-3.264.243-1.642-.031-2.895-.196-3.643a12.15 12.15 0 0 0-1.494-3.722 8.49 8.49 0 0 1-.4 1.681c-.419 1.195-.996 1.966-1.506 2.646-.497.663-.926 1.235-1.11 2.087-.191.881-.072 1.862.355 2.922.484-.304 1.284-1.124 1.57-3.283a.587.587 0 0 1 1.164.155c-.54 4.082-2.863 4.451-2.962 4.464a.58.58 0 0 1-.61-.327c-.72-1.494-.944-2.9-.666-4.18.239-1.102.788-1.834 1.318-2.542.48-.643.979-1.307 1.337-2.331a7.638 7.638 0 0 0 .396-3.031.586.586 0 0 1 1.045-.404c1.354 1.694 2.267 3.583 2.711 5.614.169.772.485 2.211.21 4.067-.26 1.745-.919 2.98-1.272 3.644-.956 1.791-2.308 3.34-4.015 4.603a.576.576 0 0 1-.349.116zm-2.097 4.9a.586.586 0 0 1-.586-.64c.396-4.481-1.002-9.162-3.835-12.841-1.229-1.597-2.867-2.877-4.451-4.115-2.031-1.588-4.132-3.23-5.506-5.601-1.315-2.268-1.834-4.994-1.54-8.103a.588.588 0 0 1 1.107-.216c.872 1.674 1.986 3.018 3.312 3.995 1.171.864 2.32 1.308 3.333 1.7 1.38.534 2.684 1.038 3.558 2.424.672 1.065.937 2.403.788 3.974a.59.59 0 0 1-.752.508 11.49 11.49 0 0 1-3.085-1.441 11.593 11.593 0 0 1-2.211-1.907.587.587 0 1 1 .873-.786 10.37 10.37 0 0 0 4.04 2.766c-.006-.979-.223-1.813-.647-2.487-.667-1.058-1.69-1.454-2.987-1.955-1.082-.419-2.309-.894-3.606-1.851a11.837 11.837 0 0 1-2.62-2.696c.053 2.067.54 3.906 1.455 5.485 1.262 2.175 3.182 3.676 5.215 5.265 1.641 1.283 3.338 2.609 4.658 4.324 3.011 3.91 4.495 8.89 4.073 13.661a.59.59 0 0 1-.586.537z" id="XMLID_9_"/><path class="st1" d="M18.717 64.132a.584.584 0 0 1-.459-.222c-1.355-1.695-2.267-3.584-2.71-5.612-.169-.774-.485-2.215-.209-4.067.259-1.747.918-2.981 1.273-3.645.956-1.791 2.306-3.34 4.013-4.604a.587.587 0 1 1 .699.945c-1.566 1.158-2.803 2.575-3.676 4.211-.344.643-.918 1.718-1.147 3.264-.244 1.64.031 2.895.195 3.644a12.198 12.198 0 0 0 1.495 3.722c.077-.578.21-1.14.4-1.681.419-1.195.997-1.966 1.506-2.646.497-.663.926-1.235 1.111-2.088.191-.881.072-1.861-.356-2.921-.485.304-1.284 1.123-1.57 3.282a.59.59 0 0 1-.66.505.586.586 0 0 1-.505-.659c.542-4.082 2.864-4.45 2.963-4.464a.59.59 0 0 1 .61.327c.721 1.493.945 2.899.667 4.18-.24 1.103-.788 1.834-1.319 2.542-.481.643-.979 1.306-1.337 2.33a7.671 7.671 0 0 0-.396 3.031.588.588 0 0 1-.588.626zM38.404 72.8a.588.588 0 0 1-.521-.316c-.871-1.672-1.985-3.017-3.312-3.995-1.171-.863-2.319-1.308-3.333-1.699-1.38-.533-2.683-1.038-3.558-2.425-.671-1.065-.937-2.402-.788-3.975a.59.59 0 0 1 .752-.508 11.536 11.536 0 0 1 5.295 3.349.588.588 0 0 1-.874.785 10.348 10.348 0 0 0-4.039-2.766c.005.979.222 1.813.647 2.486.667 1.059 1.691 1.454 2.988 1.956 1.082.418 2.309.893 3.606 1.85.985.727 1.862 1.63 2.621 2.696-.053-2.067-.54-3.906-1.456-5.485-1.261-2.175-3.182-3.677-5.214-5.266-1.641-1.283-3.338-2.609-4.658-4.324-3.011-3.909-4.496-8.889-4.074-13.661a.594.594 0 0 1 .637-.534.589.589 0 0 1 .534.637c-.396 4.482 1.001 9.162 3.834 12.841 1.23 1.598 2.868 2.877 4.451 4.115 2.032 1.588 4.132 3.23 5.507 5.602 1.315 2.269 1.833 4.994 1.539 8.104a.587.587 0 0 1-.584.533z" id="XMLID_6_"/></g><path class="st1" d="M45.881 50.09a3.149 3.149 0 0 1-3.115-3.586 3.12 3.12 0 0 1 1.224-2.073 3.127 3.127 0 0 1 2.331-.6 3.149 3.149 0 0 1 2.674 3.554 3.155 3.155 0 0 1-3.114 2.705zm-.007-5.116c-.424 0-.834.137-1.179.396a1.956 1.956 0 0 0-.767 1.298 1.974 1.974 0 0 0 1.674 2.227 1.949 1.949 0 0 0 1.46-.376c.421-.316.693-.777.767-1.298a1.956 1.956 0 0 0-.376-1.46 1.956 1.956 0 0 0-1.579-.787z"/><path id="XMLID_3_" class="st2" d="M45.67 48.422a1.493 1.493 0 1 1 .42-2.955 1.493 1.493 0 0 1-.42 2.955z"/><path class="st1" d="M39.518 41.597a3.147 3.147 0 0 1-3.115-3.585 3.144 3.144 0 1 1 3.115 3.585zm-.006-5.116c-.424 0-.835.136-1.18.396a1.96 1.96 0 0 0-.767 1.298c-.073.521.06 1.04.376 1.46s.777.693 1.298.767c.524.075 1.04-.06 1.46-.376a1.96 1.96 0 0 0 .767-1.298 1.96 1.96 0 0 0-.376-1.46 1.96 1.96 0 0 0-1.578-.787z"/><path id="XMLID_1_" class="st2" d="M39.307 39.929a1.493 1.493 0 0 1 .418-2.955 1.494 1.494 0 0 1 1.268 1.686 1.494 1.494 0 0 1-1.686 1.269z"/><path class="st1" d="M36.517 50.474a.587.587 0 0 1-.441-.975l12.305-13.983a.588.588 0 0 1 .883.776L36.958 50.273a.583.583 0 0 1-.441.201z"/></svg>