<svg version="1.1" id="Слой_1" xmlns="http://www.w3.org/2000/svg" x="0" y="0" viewBox="0 0 85.039 85.039" xml:space="preserve"><style>.st1{fill:#989898}</style><path d="M42.254 83.203c-22.709 0-41.185-18.476-41.185-41.185S19.545.833 42.254.833s41.185 18.476 41.185 41.185-18.475 41.185-41.185 41.185zm0-79.37c-21.055 0-38.185 17.13-38.185 38.185s17.13 38.185 38.185 38.185 38.185-17.13 38.185-38.185S63.31 3.833 42.254 3.833z" fill="#b8d270"/><path class="st1" d="M63.8 50.095L50.752 45.3a.616.616 0 0 0-.299-.028l-19.95 3.279c.041-.095.1-.185.132-.283.411-1.246.105-2.6-.613-3.952l3.703-2.101h14.69a.588.588 0 0 0 0-1.174H33.57a.587.587 0 0 0-.29.076l-3.865 2.193c-2.455-3.639-7.417-7.07-9.076-8.157a2.23 2.23 0 0 0 .137-.619c.082-1.445-1.612-4.918-3.708-6.912a3.147 3.147 0 0 0-3.792-.411l-.806.489a3.104 3.104 0 0 0-1.424 1.967 3.11 3.11 0 0 0 .41 2.394l4.263 6.375.01.014 9.743 14.413a6.79 6.79 0 0 0 2.007 1.945c.232.147.473.273.717.39l4.161 6.302h-5.878a5.25 5.25 0 0 0-5.244 5.244v2.199c0 .324.263.588.587.588h35.236a.589.589 0 0 0 0-1.176H22.11v-1.611a4.074 4.074 0 0 1 4.069-4.068h14.26a.587.587 0 0 0 0-1.176h-6.974l-3.785-5.734c.807.138 1.64.134 2.462-.029l8.042-1.576 5.912 8.142c.11.152.287.243.476.243h11.796a4.073 4.073 0 0 1 4.069 4.069.589.589 0 0 0 1.176 0 5.252 5.252 0 0 0-5.245-5.245H46.871l-5.416-7.458 9.463-1.854L61.769 55.8a3.005 3.005 0 0 0 2.349-.159 3.003 3.003 0 0 0 1.524-1.794 3.024 3.024 0 0 0-1.842-3.752zM12.914 32.631l-.768-1.203a1.946 1.946 0 0 1-.256-1.496 1.94 1.94 0 0 1 .89-1.229l.805-.489a1.96 1.96 0 0 1 2.373.258c1.896 1.804 3.402 4.964 3.344 5.994-.011.192-.143.88-1.378 1.672l-1.848 1.172-3.162-4.679zm51.607 20.862c-.151.48-.482.87-.933 1.097-.45.228-.961.262-1.438.098l-11-3.794a.574.574 0 0 0-.305-.021l-18.931 3.711a5.626 5.626 0 0 1-4.108-.771 5.631 5.631 0 0 1-1.662-1.61l-9.41-13.919 1.821-1.155c.515-.33.883-.66 1.161-.976 3.508 2.303 10.994 8.132 9.8 11.746a2.715 2.715 0 0 1-.629 1.025l-1.584 1.553a.587.587 0 1 0 .822.84l1.451-1.423 20.912-3.438 12.903 4.742a1.848 1.848 0 0 1 1.13 2.295zM22.553 22.091c.738 1.151 1.851 2.549 3.133 3.938 1.283 1.388 2.589 2.608 3.678 3.435.975.741 1.672 1.097 2.18 1.097.22 0 .403-.074.56-.206.011-.009.025-.012.035-.022l2.376-2.194 1.078.932a.589.589 0 0 0 .384.143H48.48a.588.588 0 0 0 0-1.174H36.195l-1.052-.909c0-1.574-2.705-4.697-4.02-6.122-1.462-1.582-4.878-5.045-6.253-4.424a.579.579 0 0 0-.202.122l-2.761 2.55-.005.006c-.509.477-.314 1.324.651 2.828zm3.996 3.141c-2.148-2.326-3.269-4.061-3.62-4.871.779.414 2.419 1.668 4.568 3.994 2.149 2.326 3.27 4.06 3.62 4.87-.779-.412-2.419-1.667-4.568-3.993zm3.71-3.427c2.547 2.756 3.644 4.677 3.732 5.218l-1.827 1.687a8.875 8.875 0 0 0-.67-1.214c-.738-1.151-1.851-2.549-3.133-3.938-1.283-1.389-2.589-2.608-3.677-3.435a8.932 8.932 0 0 0-1.158-.764l1.827-1.687c.533.131 2.361 1.377 4.906 4.133zm20.147 16.929a.588.588 0 0 0 .588-.587v-8.933h13.251v18.17a.589.589 0 0 0 1.176 0V18.508a.587.587 0 0 0-.588-.587H50.406a.588.588 0 0 0-.588.587v19.639c0 .324.264.587.588.587zm.588-19.639h13.251v8.944H50.994v-8.944z"/><path class="st1" d="M54.062 40.934a.588.588 0 0 0 .588-.587v-7.146h.489a.588.588 0 0 0 0-1.174h-2.154a.588.588 0 0 0 0 1.174h.489v7.146c0 .324.263.587.588.587zm4.113-2.342a.588.588 0 0 0 .588-.587v-4.804h.391a.588.588 0 0 0 0-1.174h-1.958a.588.588 0 0 0 0 1.174h.392v4.804a.586.586 0 0 0 .587.587zm3.917-2.404a.588.588 0 0 0 .588-.587v-2.399h.391a.588.588 0 0 0 0-1.174h-1.958a.588.588 0 0 0 0 1.174h.392v2.399a.587.587 0 0 0 .587.587z"/><path id="XMLID_115_" fill="#e7e7c6" d="M51.974 20.005h11.359v7.075H51.974z"/></svg>