<svg version="1.1" id="Слой_1" xmlns="http://www.w3.org/2000/svg" x="0" y="0" viewBox="0 0 85.039 85.039" xml:space="preserve"><style>.st2{fill:#989898}</style><path d="M42.27 83.202c-22.709 0-41.185-18.476-41.185-41.185S19.561.832 42.27.832s41.185 18.476 41.185 41.185S64.979 83.202 42.27 83.202zm0-79.37c-21.055 0-38.185 17.13-38.185 38.185s17.13 38.185 38.185 38.185 38.185-17.13 38.185-38.185S63.325 3.832 42.27 3.832z" fill="#b8d270"/><path id="XMLID_16_" d="M26.871 32.975c.04-.426.091-.85.153-1.272.293-1.975.903-6.086 3.684-9.46 3.776-4.58 9.293-5.075 11.49-5.075l.195.001c4.927.065 11.135 2.702 13.896 8.448.836 1.741 1.323 3.676 1.447 5.752v1.304l-.034-.061c-3.261-5.774-8.974-9.222-15.283-9.222-6.499.001-12.298 3.58-15.548 9.585z" fill="#e7e7c6"/><path class="st2" d="M21.564 36.686c.451 1.903 1.639 3.568 3.345 4.688 1.141.749 1.989 1.546 2.593 2.437a8.579 8.579 0 0 1 1.468 4.341c.026.489.022.991.019 1.496-.008 1.162-.017 2.364.324 3.517l.58 1.97c.749 2.569.81 3.326.854 3.879.01.12.019.231.033.347a1.901 1.901 0 0 1-1 1.887l-2.524-5.663-1.984-2.975a.588.588 0 1 0-.978.652l1.936 2.887 2.703 6.083a.587.587 0 0 0 .681.331c1.511-.38 2.514-1.816 2.333-3.341a7.094 7.094 0 0 1-.028-.303c-.049-.603-.115-1.429-.897-4.113l-.581-1.974c-.291-.985-.283-2.099-.275-3.175.004-.53.007-1.057-.021-1.569a9.741 9.741 0 0 0-1.668-4.936c-.693-1.021-1.648-1.924-2.921-2.76-1.454-.955-2.464-2.367-2.846-3.978l-1.323-5.579a.588.588 0 0 0-1.144.272l1.321 5.579z"/><path class="st2" d="M36.373 66.724a18.772 18.772 0 0 1-.844-.356l-3.686-2.327-.75-.905a.588.588 0 0 0-.905.75l.81.978c.04.048.086.089.139.122l3.82 2.408c.298.146.634.282.974.42.706.286 1.506.611 1.756.983.219.325.338.688.345 1.045L29.961 66.6c-.778-.393-2.521-1.626-4.907-3.474-.702-.543-1.212-1.278-1.504-2.204-1.397-2.962-4.996-13.09-5.312-14.745a.59.59 0 0 0-.046-.142l-1.135-2.391a.588.588 0 0 0-1.062.504l1.104 2.326c.436 2.045 4.092 12.202 5.358 14.871a5.436 5.436 0 0 0 1.878 2.71c1.729 1.338 4.017 3.048 5.142 3.613l8.534 3.429a.793.793 0 0 0 .357.087.721.721 0 0 0 .333-.081c.392-.206.458-.687.479-.844a3.053 3.053 0 0 0-.52-2.12c-.448-.669-1.383-1.048-2.287-1.415zm19.692-23.572a9.77 9.77 0 0 0-1.669 4.936c-.027.513-.024 1.038-.021 1.566.008 1.077.016 2.191-.283 3.204l-.573 1.948c-.782 2.687-.849 3.512-.897 4.114a9.1 9.1 0 0 1-.027.301c-.182 1.524.822 2.961 2.333 3.341a.587.587 0 0 0 .681-.331l2.654-5.995 1.984-2.975a.589.589 0 0 0-.978-.652l-2.032 3.063-2.477 5.575a1.901 1.901 0 0 1-.999-1.887c.014-.115.023-.226.032-.345.045-.553.105-1.309.855-3.881l.579-1.971c.341-1.152.332-2.355.323-3.519-.003-.504-.008-1.005.02-1.493a8.579 8.579 0 0 1 1.468-4.341c.604-.891 1.452-1.688 2.593-2.437 1.705-1.12 2.894-2.785 3.345-4.688l1.322-5.58-1.143-.271-1.322 5.579c-.383 1.61-1.394 3.023-2.847 3.978-1.272.837-2.228 1.739-2.921 2.761z"/><path class="st2" d="M68.265 43.365a.588.588 0 0 0-.783.279l-1.135 2.391a.637.637 0 0 0-.046.142c-.317 1.659-3.916 11.788-5.343 14.823a4.265 4.265 0 0 1-1.473 2.126c-2.391 1.85-4.134 3.083-4.861 3.453l-8.116 3.265c.006-.357.125-.722.345-1.048.25-.371 1.051-.696 1.757-.982.34-.138.675-.275 1.028-.451l3.765-2.377a.56.56 0 0 0 .139-.122l.81-.978a.587.587 0 1 0-.904-.75l-.75.906-3.63 2.295c-.275.135-.585.26-.899.388-.904.367-1.839.746-2.289 1.415-.435.645-.619 1.398-.52 2.12.021.158.088.639.479.844a.746.746 0 0 0 .344.084.642.642 0 0 0 .299-.069l8.627-3.47c1.075-.543 3.365-2.253 5.097-3.593.895-.692 1.544-1.629 1.847-2.632 1.397-2.96 4.976-13.035 5.389-14.949l1.104-2.326a.591.591 0 0 0-.281-.784zM46.922 57.054a.587.587 0 0 0-.105-.499l-.664-.86a2.64 2.64 0 0 0-1.119-.856 2.414 2.414 0 0 0-.667-.155c-.572-.058-.916.052-1.192.139-.182.057-.316.135-.521.095-.202-.003-.335-.046-.519-.105a2.785 2.785 0 0 0-1.201-.159 2.251 2.251 0 0 0-.536.099 2.595 2.595 0 0 0-1.314.947l-.65.863a.59.59 0 0 0 .224.888 9.448 9.448 0 0 0 3.963.878h.044a9.488 9.488 0 0 0 3.932-.879.6.6 0 0 0 .325-.396zm-4.262.096c-.926.025-1.912-.16-2.83-.491l.192-.256c.198-.264.447-.446.722-.531.061-.019.137-.038.282-.049.338-.027.509.027.744.104.216.07.485.158.865.164.408.008.669-.081.889-.149.229-.07.394-.123.726-.09.143.014.245.037.353.079.232.091.446.258.619.481l.192.248a8.19 8.19 0 0 1-2.754.49zm2.485 1.584l-.732.595a2.045 2.045 0 0 1-1.056.288h-1.402a2.096 2.096 0 0 1-.905-.205l-.883-.685a.587.587 0 0 0-.72.929l.93.72c.029.022.06.042.093.059a3.28 3.28 0 0 0 1.486.358h1.402a3.205 3.205 0 0 0 1.723-.501l.8-.642a.587.587 0 1 0-.736-.916zm-.906-8.463a3.179 3.179 0 0 1-.305.214c-.121.08-.269.179-.453.307-.493.349-1.498.347-1.993-.002a18.144 18.144 0 0 0-.45-.304c-.132-.088-.272-.178-.264-.139a.588.588 0 0 0-1.144.269c.096.408.359.583.758.848.115.076.255.17.425.288.446.313 1.06.471 1.673.471.612 0 1.224-.156 1.667-.469.173-.12.314-.214.429-.29.399-.265.662-.439.758-.85.073-.315-.102-.67-.418-.744-.313-.068-.609.085-.683.401zm-12.075-5.667a.587.587 0 1 0 1.094.428c.136-.348.569-.483.803-.533.09.026.177.058.269.079a4.89 4.89 0 0 0 1.074.117c.25 0 .447-.018.567-.029.398-.034.702-.106 2.029-.48l1.115-.317a.587.587 0 1 0-.325-1.129l-1.108.315c-1.343.378-1.543.417-1.817.441-.228.021-.704.065-1.276-.064a3.755 3.755 0 0 1-1.622-.838c-.253-.199-.808-.551-1.533-.515a2.42 2.42 0 0 0-1.416.499.588.588 0 0 0 .717.931 1.24 1.24 0 0 1 .723-.255c.385-.011.679.182.764.248.159.136.323.261.492.375a1.828 1.828 0 0 0-.55.727zm17.305.091c.296 0 .666-.025 1.074-.117.092-.021.179-.053.269-.079.234.051.667.185.803.534a.59.59 0 0 0 .762.332.588.588 0 0 0 .332-.762 1.804 1.804 0 0 0-.54-.733c.16-.108.315-.225.463-.353a1.2 1.2 0 0 1 .783-.264c.349.007.603.163.724.256a.588.588 0 0 0 .715-.932 2.426 2.426 0 0 0-1.415-.498c-.733-.023-1.28.316-1.552.53a3.706 3.706 0 0 1-1.604.822 3.91 3.91 0 0 1-1.278.064c-.271-.023-.472-.063-1.814-.441l-1.109-.315a.589.589 0 0 0-.325 1.13l1.115.316c1.328.374 1.632.446 2.027.48.122.013.319.03.57.03z"/><path class="st2" d="M51.887 61.362a.59.59 0 0 0 .017-.831.59.59 0 0 0-.831-.017c-2.041 1.959-4.244 3.621-5.731 4.67-1.756 1.229-3.935 1.228-5.685.001-1.604-1.131-3.962-2.918-6.082-5.006a.588.588 0 0 0-.825.838c2.176 2.143 4.588 3.972 6.229 5.13 1.084.76 2.299 1.14 3.516 1.14s2.434-.381 3.521-1.141c1.522-1.073 3.776-2.774 5.871-4.784zM25.833 39.44a.592.592 0 0 0 .599-.446 22.162 22.162 0 0 1 1.792-4.806l.121-.23c2.881-5.435 8.065-8.725 13.869-8.802 5.73-.078 10.965 3.036 13.953 8.325a22 22 0 0 1 2.174 5.513.587.587 0 0 0 1.158-.14v-7.517l-.001-.034c-.134-2.32-.679-4.49-1.62-6.447-3.299-6.866-10.39-9.38-15.46-9.447-2.482-.027-8.735.459-13.069 5.715-3.092 3.751-3.751 8.188-4.067 10.322a25.71 25.71 0 0 0 0 7.494c.04.276.271.486.551.5zm.61-7.824c.301-2.028.928-6.247 3.812-9.747 3.897-4.727 9.505-5.289 11.943-5.289l.203.001c5.109.067 11.547 2.809 14.417 8.781.872 1.814 1.378 3.829 1.504 5.989v3.86a22.199 22.199 0 0 0-1.133-2.311c-3.201-5.669-8.817-9.012-14.992-8.922-6.24.083-11.807 3.607-14.89 9.424l-.13.249a22.58 22.58 0 0 0-.988 2.205 24.517 24.517 0 0 1 .254-4.24z"/><path class="st2" d="M35.967 37.945c1.702.324 2.436 1.245 2.468 1.286a.59.59 0 0 0 .82.114.588.588 0 0 0 .118-.823c-.041-.054-1.009-1.317-3.186-1.731-2.052-.391-4.521-.02-4.625-.003a.586.586 0 0 0-.491.67.584.584 0 0 0 .67.491c.023-.004 2.375-.357 4.226-.004zm9.43 1.264c.03-.039.764-.961 2.468-1.286 1.854-.351 4.205 0 4.229.003a.587.587 0 1 0 .178-1.161c-.104-.017-2.57-.388-4.626.003-2.176.415-3.145 1.678-3.185 1.731a.585.585 0 0 0 .469.937.582.582 0 0 0 .467-.227z"/></svg>