<svg version="1.1" id="Слой_1" xmlns="http://www.w3.org/2000/svg" x="0" y="0" viewBox="0 0 85.039 85.039" xml:space="preserve"><style>.st1{fill:#e7e7c6}.st2{fill:#989898}</style><path d="M42.27 83.203c-22.709 0-41.185-18.476-41.185-41.185S19.561.833 42.27.833s41.185 18.476 41.185 41.185S64.979 83.203 42.27 83.203zm0-79.37c-21.055 0-38.185 17.13-38.185 38.185s17.13 38.185 38.185 38.185 38.185-17.13 38.185-38.185S63.325 3.833 42.27 3.833z" fill="#b8d270"/><path id="XMLID_94_" class="st1" d="M51.735 59.164a1.493 1.493 0 0 1-1.492-1.492c0-.823.669-1.492 1.492-1.492s1.492.669 1.492 1.492-.67 1.492-1.492 1.492z"/><path id="XMLID_92_" class="st1" d="M51.735 50.846a1.493 1.493 0 0 1-1.492-1.492c0-.823.669-1.492 1.492-1.492s1.492.669 1.492 1.492-.67 1.492-1.492 1.492z"/><path class="st2" d="M45.827 57.747a.59.59 0 0 0-.105-.5l-.904-1.171a3.4 3.4 0 0 0-1.433-1.097 3.083 3.083 0 0 0-.854-.199c-.731-.072-1.18.068-1.538.181-.256.08-.445.166-.775.139-.307-.004-.511-.07-.769-.154-.364-.118-.817-.263-1.554-.207-.326.026-.535.08-.684.125-.655.201-1.236.621-1.682 1.215l-.885 1.178a.585.585 0 0 0 .225.887 12.68 12.68 0 0 0 5.313 1.176h.055a12.701 12.701 0 0 0 5.266-1.178.595.595 0 0 0 .324-.395zm-5.597.396a11.55 11.55 0 0 1-4.195-.782l.433-.576c.296-.395.672-.67 1.085-.797.101-.03.223-.061.436-.077.505-.039.766.045 1.096.152.295.096.63.205 1.115.213.501 0 .844-.1 1.144-.193.322-.101.575-.184 1.072-.132.215.021.375.058.538.122.352.138.675.388.933.722l.439.568a11.468 11.468 0 0 1-4.096.78zm3.516 2.109l-1.021.826a3.018 3.018 0 0 1-1.084.386 2.845 2.845 0 0 1-.463.037h-1.909a3.023 3.023 0 0 1-1.346-.312l-1.221-.944a.588.588 0 0 0-.719.929l1.266.979a.54.54 0 0 0 .091.058 4.207 4.207 0 0 0 1.929.465h1.909a4.182 4.182 0 0 0 2.213-.636l1.089-.873a.586.586 0 1 0-.734-.915zM36.75 48.277a.588.588 0 0 0-.438.706c.111.476.407.672.943 1.027.157.104.35.232.583.395.575.405 1.366.607 2.156.607s1.578-.202 2.149-.605c.235-.163.428-.291.585-.395.538-.356.834-.554.945-1.029a.591.591 0 0 0-.435-.712.579.579 0 0 0-.701.433c-.042.052-.254.193-.459.329-.163.107-.361.239-.609.411-.745.525-2.208.526-2.957-.002-.245-.17-.444-.303-.607-.41-.205-.136-.416-.276-.449-.316a.584.584 0 0 0-.706-.439zm-10.615-7.354a.588.588 0 0 0 1.094.428c.229-.585.924-.793 1.301-.867.134.04.266.087.403.118a6.318 6.318 0 0 0 1.411.156c.325 0 .585-.023.76-.04.525-.047.933-.144 2.724-.647l1.517-.432a.587.587 0 0 0-.325-1.129l-1.51.43c-1.766.496-2.104.571-2.511.608-.325.028-1 .09-1.806-.092-.826-.188-1.591-.58-2.293-1.182-.323-.253-1-.669-1.953-.655a3.09 3.09 0 0 0-1.801.635.588.588 0 0 0 .716.932 1.904 1.904 0 0 1 1.109-.392c.603.02 1.043.279 1.184.388.287.247.592.455.904.644-.427.284-.75.652-.924 1.097zm28.744-2.128c.535.011.925.25 1.108.392a.588.588 0 0 0 .717-.932 3.099 3.099 0 0 0-1.802-.635c-.92-.017-1.63.402-1.971.671a5.266 5.266 0 0 1-2.274 1.165c-.808.183-1.483.121-1.806.093-.407-.037-.745-.112-2.511-.608-.616-.173-1.134-.321-1.51-.43a.588.588 0 0 0-.327 1.129c.378.109.897.257 1.518.432 1.791.503 2.198.6 2.724.647.175.016.435.04.76.04.39 0 .873-.034 1.411-.156.137-.031.269-.078.403-.118.377.074 1.072.281 1.301.867a.588.588 0 1 0 1.094-.428c-.174-.444-.496-.813-.922-1.095a6.68 6.68 0 0 0 .884-.629c.16-.127.557-.448 1.203-.405z"/><path class="st2" d="M52.409 61.699a41.719 41.719 0 0 1-5.772 5.413 77.262 77.262 0 0 1-2.621 1.933c-2.455 1.724-5.505 1.723-7.956.001-4.87-3.441-13.31-10.234-15.125-17.065-1.125-4.255-1.797-8.699-1.951-12.866l.313-.873c1.715-4.802 3.66-10.245 11.211-16.389 1.592-1.306 3.847-2.525 6.52-3.527a.587.587 0 1 0-.412-1.1c-2.792 1.046-5.162 2.332-6.851 3.718-7.804 6.349-9.807 11.956-11.574 16.903l-.307.855-.001.006c-.001.002-.003.003-.003.005-.427.979-1.2 1.762-2.018 2.591-.496.502-1.009 1.022-1.453 1.6-2.287 2.983-2.33 7.513-.1 10.539.213.289.444.565.676.842.424.506.826.983 1.093 1.525a3.68 3.68 0 0 1-.208 3.562.588.588 0 0 0 .987.639c.897-1.386 1.006-3.238.276-4.72-.33-.669-.796-1.225-1.247-1.762a16.097 16.097 0 0 1-.63-.783c-1.932-2.62-1.895-6.543.086-9.126.399-.52.864-.991 1.356-1.489.415-.421.836-.85 1.219-1.313a61.616 61.616 0 0 0 1.882 11.467c1.911 7.189 10.583 14.19 15.584 17.724 1.435 1.009 3.043 1.513 4.653 1.513 1.609 0 3.22-.504 4.656-1.513a78.275 78.275 0 0 0 2.661-1.963 43.073 43.073 0 0 0 5.937-5.564.59.59 0 0 0-.881-.783z"/><path class="st2" d="M31.156 31.568c2.399.457 3.468 1.803 3.489 1.83a.588.588 0 0 0 .939-.708c-.053-.07-1.324-1.728-4.208-2.277-2.761-.525-6.085-.024-6.227-.003a.586.586 0 0 0-.491.67.58.58 0 0 0 .67.491c.032-.004 3.269-.491 5.828-.003zm21.951-.025c.313.048.62-.17.67-.491a.588.588 0 0 0-.492-.67c-.139-.021-3.464-.521-6.227.003-2.884.549-4.154 2.207-4.207 2.277a.586.586 0 0 0 .937.708c.011-.014 1.079-1.371 3.49-1.831 2.557-.487 5.797-.001 5.829.004z"/><path class="st2" d="M38.811 15.603l.817.444c2.71 1.472 5.513 2.995 8.09 4.722 6.149 4.12 10.424 9.832 13.446 17.964a27.703 27.703 0 0 1-.822 5.807c-.382 1.543-.707 2.677-.94 3.28a.588.588 0 1 0 1.096.424c.255-.657.587-1.81.985-3.422.517-2.09.807-4.154.86-6.158a.582.582 0 0 0-.036-.231C59.192 30 54.765 24.076 48.372 19.792c-2.622-1.757-5.449-3.293-8.184-4.778l-.816-.444a.589.589 0 0 0-.561 1.033zm25.847 38.023c0-1.724-1.438-3.197-3.495-3.582l-6.333-1.186a3.142 3.142 0 0 0-3.095-2.649c-1.733 0-3.145 1.411-3.145 3.146s1.411 3.146 3.145 3.146a3.147 3.147 0 0 0 3.063-2.453l6.149 1.152c1.493.28 2.536 1.278 2.536 2.428 0 1.183-1.124 2.213-2.673 2.45L54.804 57a3.149 3.149 0 0 0-3.069-2.472c-1.733 0-3.145 1.411-3.145 3.146s1.411 3.146 3.145 3.146a3.144 3.144 0 0 0 3.094-2.633l6.159-.946c2.126-.329 3.67-1.847 3.67-3.615zm-12.924-2.302c-1.086 0-1.969-.884-1.969-1.97s.883-1.97 1.969-1.97 1.97.884 1.97 1.97-.884 1.97-1.97 1.97zm0 8.318c-1.086 0-1.969-.884-1.969-1.97s.883-1.97 1.969-1.97 1.97.884 1.97 1.97-.884 1.97-1.97 1.97z"/><path class="st2" d="M74.334 57.998h-3.691a.646.646 0 0 1-.646-.646V49.97c0-.356.289-.646.646-.646h3.691a.589.589 0 0 0 0-1.176h-3.691a1.823 1.823 0 0 0-1.821 1.821v1.604h-2.197c-.762-1.72-2.455-3.038-4.638-3.447a.582.582 0 0 0-.686.469.587.587 0 0 0 .469.686c2.43.455 4.126 2.241 4.126 4.344 0 2.151-1.819 3.992-4.326 4.377a.589.589 0 0 0 .178 1.162c2.239-.344 4.019-1.672 4.834-3.416h2.24v1.604c0 1.004.817 1.821 1.821 1.821h3.691a.588.588 0 0 0 0-1.175zm-7.359-3.425c.06-.309.096-.625.096-.947 0-.298-.035-.589-.085-.875h1.835v1.822h-1.846z"/></svg>