<?xml version="1.0" encoding="utf-8"?>
<!-- Generator: Adobe Illustrator 18.1.1, SVG Export Plug-In . SVG Version: 6.00 Build 0)  -->
<svg version="1.1" id="Layer_1" xmlns="http://www.w3.org/2000/svg" xmlns:xlink="http://www.w3.org/1999/xlink" x="0px" y="0px"
	 viewBox="0 0 85 85" enable-background="new 0 0 85 85" xml:space="preserve">
<g>
	<path fill="#AFD46A" d="M42.1,83.7C19.4,83.7,1,65.3,1,42.6C1,19.8,19.4,1.4,42.1,1.4s41.2,18.5,41.2,41.2
		C83.3,65.3,64.8,83.7,42.1,83.7z M42.1,4.4C21.1,4.4,4,21.5,4,42.6c0,21.1,17.1,38.2,38.2,38.2s38.2-17.1,38.2-38.2
		C80.3,21.5,63.2,4.4,42.1,4.4z"/>
</g>
<path fill="#F15A29" d="M44.2,44.3L63,25.5c0.6-0.6,0.6-1.5,0-2.1c-0.6-0.6-1.5-0.6-2.1,0L42.1,42.1L23.3,23.4
	c-0.6-0.6-1.5-0.6-2.1,0c-0.6,0.6-0.6,1.5,0,2.1L40,44.3L21.2,63c-0.6,0.6-0.6,1.5,0,2.1c0.3,0.3,0.7,0.4,1.1,0.4s0.8-0.1,1.1-0.4
	l18.8-18.8l18.8,18.8c0.3,0.3,0.7,0.4,1.1,0.4s0.8-0.1,1.1-0.4c0.6-0.6,0.6-1.5,0-2.1L44.2,44.3z"/>
</svg>
