<?xml version="1.0" encoding="utf-8"?>
<!-- Generator: Adobe Illustrator 18.1.1, SVG Export Plug-In . SVG Version: 6.00 Build 0)  -->
<svg version="1.1" baseProfile="tiny" id="Layer_1" xmlns="http://www.w3.org/2000/svg" xmlns:xlink="http://www.w3.org/1999/xlink"
	 x="0px" y="0px" viewBox="0 0 481.89 481.89" xml:space="preserve">
<g>
	<g>
		<path fill="#AFD46A" d="M160.754,197.034c-11.983-11.983-31.206-11.983-43.189-0.25c-12.233,11.983-12.233,31.206-0.25,43.189
			l72.897,73.396c5.742,5.742,13.481,8.987,21.719,8.987l0,0c7.989,0,15.728-3.245,21.47-8.987L455.336,92.682
			c11.983-11.983,11.983-31.206,0.25-43.189c-11.983-11.983-31.206-11.983-43.189,0l-67.155,66.656
			c-35.699-36.948-85.379-58.168-137.555-58.168c-105.6,0-191.479,85.878-191.479,191.479s85.878,191.479,191.479,191.479
			c85.129,0,158.775-54.672,183.49-136.057c4.993-16.227-4.244-33.203-20.471-38.196c-16.227-4.743-33.203,4.244-38.196,20.471
			c-16.477,54.423-67.904,92.619-124.823,92.619c-71.898,0-130.315-58.417-130.315-130.315s58.417-130.315,130.315-130.315
			c35.699,0,69.651,14.979,94.117,40.443l-89.623,89.124L160.754,197.034z"/>
	</g>
</g>
</svg>
