<?xml version="1.0" encoding="utf-8"?>
<!-- Generator: Adobe Illustrator 18.1.1, SVG Export Plug-In . SVG Version: 6.00 Build 0)  -->
<svg version="1.1" baseProfile="tiny" id="Layer_1" xmlns="http://www.w3.org/2000/svg" xmlns:xlink="http://www.w3.org/1999/xlink"
	 x="0px" y="0px" viewBox="0 0 85.04 85.04" xml:space="preserve">
<g>
	<g>
		<circle fill="#FFFFFF" stroke="#AFD46A" stroke-width="3" stroke-miterlimit="10" cx="42.667" cy="41.82" r="39.685"/>
	</g>
	<g>
		<path fill="#9B9B9B" d="M60.614,31.159l-0.008,0.004H28.634c-1.502,0-2.728-1.226-2.728-2.732v-3.674
			c0-1.506,1.226-2.732,2.728-2.732h31.934c0.655,0,1.185-0.526,1.185-1.181c0-0.654-0.53-1.185-1.185-1.185H28.634
			c-2.808,0-5.093,2.286-5.093,5.097v3.674v30.455c0,2.812,2.285,5.097,5.093,5.097h28.067c2.808,0,5.093-2.285,5.093-5.097V32.343
			C61.794,31.688,61.264,31.159,60.614,31.159z M27.775,61.462c-1.078-0.363-1.869-1.374-1.869-2.577v-26.16
			c0.56,0.36,1.192,0.606,1.869,0.723V61.462z M59.429,58.885c0,1.506-1.226,2.732-2.728,2.732H29.553v-28.09h29.876V58.885z"/>
		<path fill="#9B9B9B" d="M60.614,23.867H28.751c-0.492,0-0.889,0.397-0.889,0.889c0,0.488,0.397,0.885,0.889,0.885h31.863
			c0.488,0,0.885-0.397,0.885-0.885C61.499,24.264,61.101,23.867,60.614,23.867z"/>
		<path fill="#9B9B9B" d="M52.312,44.693c0-0.492-0.397-0.889-0.886-0.889H37.564c-0.492,0-0.889,0.397-0.889,0.889
			c0,0.488,0.397,0.885,0.889,0.885h13.862C51.914,45.579,52.312,45.182,52.312,44.693z"/>
		<path fill="#9B9B9B" d="M60.614,27.53H28.751c-0.492,0-0.889,0.397-0.889,0.889c0,0.488,0.397,0.885,0.889,0.885h31.863
			c0.488,0,0.885-0.397,0.885-0.885C61.499,27.927,61.101,27.53,60.614,27.53z"/>
		<path fill="#9B9B9B" d="M36.421,51.15h16.461c2.339,0,4.242-1.9,4.242-4.242v-4.53c0-2.342-1.903-4.242-4.242-4.242H36.421
			c-2.339,0-4.238,1.899-4.238,4.242v4.53C32.183,49.251,34.083,51.15,36.421,51.15z M33.954,42.378
			c0-1.362,1.105-2.467,2.467-2.467h16.461c1.362,0,2.468,1.105,2.468,2.467v4.53c0,1.362-1.105,2.467-2.468,2.467H36.421
			c-1.362,0-2.467-1.105-2.467-2.467V42.378z"/>
	</g>
</g>
</svg>
