<?xml version="1.0" encoding="utf-8"?>
<!-- Generator: Adobe Illustrator 18.1.1, SVG Export Plug-In . SVG Version: 6.00 Build 0)  -->
<svg version="1.1" baseProfile="tiny" id="Layer_1" xmlns="http://www.w3.org/2000/svg" xmlns:xlink="http://www.w3.org/1999/xlink"
	 x="0px" y="0px" viewBox="0 0 85.04 85.04" xml:space="preserve">
<g>
	<g>
		<circle fill="#FFFFFF" stroke="#AFD46A" stroke-width="3" stroke-miterlimit="10" cx="42.667" cy="41.643" r="39.685"/>
	</g>
	<g>
		<path fill="#9B9B9B" d="M53.732,20.839H22.676c-0.492,0-0.889,0.397-0.889,0.889v28.604c-2.936,0.431-5.203,2.963-5.203,6.021
			c0,3.36,2.732,6.093,6.093,6.093h25.853h0.011c0,0,0.004,0,0.008,0c3.353-0.015,6.073-2.74,6.073-6.093V21.729
			C54.621,21.237,54.224,20.839,53.732,20.839z M22.676,60.671c-2.38,0-4.318-1.934-4.318-4.318c0-2.38,1.937-4.321,4.318-4.321
			h21.558c-1.112,1.109-1.801,2.634-1.801,4.321c0,1.688,0.689,3.213,1.801,4.318H22.676z M52.843,56.353
			c0,2.384-1.934,4.318-4.314,4.318c-2.38,0-4.318-1.934-4.318-4.318c0-2.38,1.937-4.321,4.318-4.321
			c0.488,0,0.885-0.394,0.885-0.885c0-0.488-0.397-0.885-0.885-0.885H23.565V22.614h29.278V56.353z"/>
		<path fill="#9B9B9B" d="M28.397,28.354h19.617c0.654,0,1.184-0.53,1.184-1.184c0-0.651-0.53-1.181-1.184-1.181H28.397
			c-0.655,0-1.185,0.53-1.185,1.181C27.213,27.825,27.743,28.354,28.397,28.354z"/>
		<path fill="#9B9B9B" d="M28.397,46.693h14.27c0.651,0,1.185-0.53,1.185-1.185c0-0.654-0.534-1.181-1.185-1.181h-14.27
			c-0.655,0-1.185,0.526-1.185,1.181C27.213,46.163,27.743,46.693,28.397,46.693z"/>
		<path fill="#9B9B9B" d="M48.014,32.097h-7.527c-0.655,0-1.181,0.53-1.181,1.184c0,0.651,0.526,1.185,1.181,1.185h7.527
			c0.654,0,1.184-0.534,1.184-1.185C49.199,32.627,48.669,32.097,48.014,32.097z"/>
		<path fill="#9B9B9B" d="M28.397,34.466h7.163c0.651,0,1.181-0.534,1.181-1.185c0-0.654-0.53-1.184-1.181-1.184h-7.163
			c-0.655,0-1.185,0.53-1.185,1.184C27.213,33.932,27.743,34.466,28.397,34.466z"/>
		<path fill="#9B9B9B" d="M28.397,40.577h19.617c0.654,0,1.184-0.53,1.184-1.184c0-0.651-0.53-1.181-1.184-1.181H28.397
			c-0.655,0-1.185,0.53-1.185,1.181C27.213,40.047,27.743,40.577,28.397,40.577z"/>
		<path fill="#9B9B9B" d="M68.729,29.479c0-0.004,0-0.004,0-0.004c-0.012-0.064-0.034-0.121-0.057-0.174l-0.004-0.011l-3.625-7.826
			c-0.148-0.314-0.462-0.515-0.806-0.515c-0.345,0-0.662,0.201-0.806,0.515l-3.622,7.826l-0.007,0.011
			c-0.019,0.045-0.034,0.091-0.046,0.136c0,0.015-0.007,0.023-0.007,0.034c-0.015,0.064-0.023,0.125-0.023,0.189l0,0v30.538
			c0,1.567,2.43,2.123,4.511,2.123l0,0c2.081,0,4.514-0.556,4.514-2.127c0-0.299,0-29.913,0-30.519c0-0.004,0-0.004,0-0.004
			c0-0.008,0-0.008,0-0.008C68.751,29.599,68.744,29.539,68.729,29.479z M64.237,23.946l1.01,2.172
			c-0.329,0.098-0.662,0.163-1.003,0.163c0,0-0.007,0.004-0.011,0c-0.341,0-0.677-0.064-1.003-0.163L64.237,23.946z M63.351,60.504
			c-1.018-0.095-1.639-0.337-1.851-0.48l-0.003-28.608c0.564,0.178,1.207,0.288,1.854,0.337V60.504z M61.637,29.562l0.836-1.813
			c0.568,0.2,1.158,0.307,1.76,0.307c0.004,0,0.008,0,0.008,0c0.605,0,1.192-0.106,1.756-0.307l0.844,1.813
			c-0.375,0.189-1.234,0.45-2.603,0.45C62.871,30.012,62.012,29.751,61.637,29.562z M66.976,60.024
			c-0.235,0.159-0.889,0.386-1.85,0.48V31.753c0.647-0.053,1.29-0.159,1.854-0.341c-0.008,0.738-0.008,1.71-0.008,3.02
			L66.976,60.024z"/>
	</g>
</g>
</svg>
