<?xml version="1.0" encoding="utf-8"?>
<!-- Generator: Adobe Illustrator 18.1.1, SVG Export Plug-In . SVG Version: 6.00 Build 0)  -->
<svg version="1.1" baseProfile="tiny" id="Layer_1" xmlns="http://www.w3.org/2000/svg" xmlns:xlink="http://www.w3.org/1999/xlink"
	 x="0px" y="0px" viewBox="0 0 85.04 85.04" xml:space="preserve">
<g>
	<g>
		<circle fill="#FFFFFF" stroke="#AFD46A" stroke-width="3" stroke-miterlimit="10" cx="42.667" cy="41.998" r="39.685"/>
	</g>
	<g>
		<path fill="#9B9B9B" d="M53.751,55.144c0,0,0-0.008,0.004-0.012c0.011-0.057,0.019-0.106,0.019-0.166V20.425
			c0-0.488-0.401-0.885-0.893-0.885H22.543c-0.492,0-0.885,0.397-0.885,0.885v43.147c0,0.488,0.393,0.885,0.885,0.885h21.736h0.007
			c0.057,0,0.114-0.008,0.167-0.015c0.034-0.008,0.068-0.019,0.098-0.03c0.022-0.008,0.049-0.012,0.068-0.023
			c0.038-0.015,0.072-0.034,0.106-0.057c0.015-0.003,0.034-0.015,0.049-0.022c0.049-0.03,0.095-0.072,0.136-0.114l8.602-8.598
			c0.053-0.057,0.098-0.121,0.14-0.193c0.004-0.015,0.015-0.03,0.023-0.045C53.709,55.291,53.74,55.22,53.751,55.144z
			 M43.394,54.966v7.719H23.432V21.314h28.567V54.08h-7.72C43.791,54.08,43.394,54.478,43.394,54.966z M45.169,61.425v-5.57h5.574
			L45.169,61.425z"/>
		<path fill="#9B9B9B" d="M35.443,26.434h13.403c0.488,0,0.885-0.398,0.885-0.885c0-0.492-0.397-0.889-0.885-0.889H35.443
			c-0.492,0-0.885,0.397-0.885,0.889C34.558,26.036,34.951,26.434,35.443,26.434z"/>
		<path fill="#9B9B9B" d="M48.847,29.124H35.443c-0.492,0-0.885,0.401-0.885,0.889c0,0.492,0.393,0.889,0.885,0.889h13.403
			c0.488,0,0.885-0.397,0.885-0.889C49.732,29.525,49.335,29.124,48.847,29.124z"/>
		<path fill="#9B9B9B" d="M48.582,35.83H35.178c-0.488,0-0.885,0.397-0.885,0.885c0,0.492,0.398,0.889,0.885,0.889h13.403
			c0.492,0,0.885-0.398,0.885-0.889C49.467,36.227,49.074,35.83,48.582,35.83z"/>
		<path fill="#9B9B9B" d="M48.582,40.295H35.178c-0.488,0-0.885,0.398-0.885,0.889c0,0.492,0.398,0.885,0.885,0.885h13.403
			c0.492,0,0.885-0.393,0.885-0.885C49.467,40.692,49.074,40.295,48.582,40.295z"/>
		<path fill="#9B9B9B" d="M48.582,44.76H35.178c-0.488,0-0.885,0.401-0.885,0.889c0,0.492,0.398,0.889,0.885,0.889h13.403
			c0.492,0,0.885-0.398,0.885-0.889C49.467,45.161,49.074,44.76,48.582,44.76z"/>
		<path fill="#9B9B9B" d="M31.05,30.903h-4.469c-0.492,0-0.885-0.397-0.885-0.889v-4.465c0-0.492,0.393-0.889,0.885-0.889h4.469
			c0.488,0,0.889,0.397,0.889,0.889v4.465C31.939,30.506,31.538,30.903,31.05,30.903z M27.47,29.128h2.694v-2.694H27.47V29.128z"/>
		<path fill="#9B9B9B" d="M31.05,42.07h-4.469c-0.492,0-0.885-0.393-0.885-0.885v-4.469c0-0.488,0.393-0.885,0.885-0.885h4.469
			c0.488,0,0.889,0.397,0.889,0.885v4.469C31.939,41.676,31.538,42.07,31.05,42.07z M27.47,40.295h2.694v-2.69H27.47V40.295z"/>
		<path fill="#9B9B9B" d="M60.331,24.224c-1.843,0-3.341,1.498-3.341,3.345v19.333c0,0.023,0.004,0.038,0.004,0.057
			c0,0.019,0.004,0.046,0.004,0.068c0.007,0.045,0.015,0.091,0.034,0.136c0.004,0.011,0.004,0.026,0.007,0.038l2.456,6.895
			c0.129,0.356,0.462,0.591,0.836,0.591c0.375,0,0.711-0.235,0.837-0.591l2.456-6.895c0.007-0.011,0.007-0.026,0.011-0.041
			c0.011-0.041,0.022-0.087,0.03-0.133c0-0.022,0.004-0.049,0.004-0.072c0.003-0.015,0.007-0.03,0.007-0.053V27.569
			C63.677,25.722,62.178,24.224,60.331,24.224z M58.761,30.918h3.141v15.099h-3.141V30.918z M58.761,27.569
			c0-0.866,0.704-1.57,1.57-1.57c0.867,0,1.571,0.704,1.571,1.57v1.574h-3.141V27.569z M60.331,51.156l-1.199-3.368h2.399
			L60.331,51.156z"/>
	</g>
</g>
</svg>
