<?xml version="1.0" encoding="utf-8"?>
<!-- Generator: Adobe Illustrator 18.1.1, SVG Export Plug-In . SVG Version: 6.00 Build 0)  -->
<svg version="1.1" baseProfile="tiny" id="Layer_1" xmlns="http://www.w3.org/2000/svg" xmlns:xlink="http://www.w3.org/1999/xlink"
	 x="0px" y="0px" viewBox="0 0 85.04 85.04" xml:space="preserve">
<g>
	<g>
		<circle fill="#FFFFFF" stroke="#AFD46A" stroke-width="3" stroke-miterlimit="10" cx="42.561" cy="42.602" r="39.685"/>
	</g>
</g>
<g id="XMLID_214_">
	<g id="XMLID_692_">
		
			<path id="XMLID_745_" fill="none" stroke="#9B9B9B" stroke-width="1.5" stroke-linecap="round" stroke-linejoin="round" stroke-miterlimit="10" d="
			M41.417,64.281h13.934c1.044,0,1.883-0.839,1.883-1.883v-3.162"/>
		
			<path id="XMLID_694_" fill="none" stroke="#9B9B9B" stroke-width="1.5" stroke-linecap="round" stroke-linejoin="round" stroke-miterlimit="10" d="
			M19.018,39.104c-0.031-1.064,0.829-1.945,1.894-1.945h12.474h29.581c1.074,0,1.925,0.893,1.893,1.967
			c-0.177,5.866-2.53,11.209-6.222,15.237c-1.828,1.995-4.182,3.426-6.784,4.168c-1.417,0.404-3.032,0.773-4.822,1.032"/>
	</g>
	<g id="XMLID_686_">
		
			<path id="XMLID_689_" fill="none" stroke="#9B9B9B" stroke-width="1.5" stroke-linecap="round" stroke-linejoin="round" stroke-miterlimit="10" d="
			M42.989,34.496l16.333-12.364c-0.023-0.167-0.312-2.482,1.136-3.584c1.608-1.223,4.109-0.004,5.332,1.224
			c1.606,1.611,2.454,4.685,1.049,5.944c-1.13,1.012-3.172,0.363-3.475,0.262c-1.916,1.981-8.077,8.585-8.077,8.585"/>
		
			<line id="XMLID_688_" fill="none" stroke="#9B9B9B" stroke-width="1.5" stroke-linecap="round" stroke-linejoin="round" stroke-miterlimit="10" x1="59.321" y1="22.132" x2="61.64" y2="24.629"/>
	</g>
	<g id="XMLID_668_">
		<g id="XMLID_934_">
			
				<path id="XMLID_938_" fill="none" stroke="#9B9B9B" stroke-width="1.5" stroke-linecap="round" stroke-linejoin="round" stroke-miterlimit="10" d="
				M22.961,39.322"/>
			
				<path id="XMLID_937_" fill="none" stroke="#9B9B9B" stroke-width="1.5" stroke-linecap="round" stroke-linejoin="round" stroke-miterlimit="10" d="
				M22.028,40.684c-0.514,0.743-1.288,2.072-1.597,3.89c-0.077,0.452-0.293,1.922,0.122,3.808c0.594,2.701,2.164,4.809,4.235,7.589
				c0.926,1.244,1.558,1.961,1.858,3.273c0.1,0.436,0.411,1.892-0.253,3.558c-0.552,1.385-1.282,2.131-1.721,2.465"/>
			
				<path id="XMLID_936_" fill="none" stroke="#9B9B9B" stroke-width="1.5" stroke-linecap="round" stroke-linejoin="round" stroke-miterlimit="10" d="
				M22.669,65.173c-4.069-0.82-7.534-5.396-8.165-11.243c-0.733-6.788,2.632-12.718,7.515-13.245"/>
			
				<path id="XMLID_935_" fill="none" stroke="#9B9B9B" stroke-width="1.5" stroke-linecap="round" stroke-linejoin="round" stroke-miterlimit="10" d="
				M24.408,40.868c3.9,1.023,7.168,5.493,7.779,11.153c0.733,6.788-2.632,12.718-7.515,13.245"/>
		</g>
		<g id="XMLID_822_">
			
				<path id="XMLID_931_" fill="none" stroke="#9B9B9B" stroke-width="1.5" stroke-linecap="round" stroke-linejoin="round" stroke-miterlimit="10" d="
				M47.642,51.222"/>
			
				<path id="XMLID_905_" fill="none" stroke="#9B9B9B" stroke-width="1.5" stroke-linecap="round" stroke-linejoin="round" stroke-miterlimit="10" d="
				M46.064,50.738c-0.862-0.268-2.363-0.609-4.19-0.36c-0.455,0.062-1.922,0.295-3.597,1.255c-1.326,0.76-2.391,1.75-3.421,2.958"/>
			
				<path id="XMLID_858_" fill="none" stroke="#9B9B9B" stroke-width="1.5" stroke-linecap="round" stroke-linejoin="round" stroke-miterlimit="10" d="
				M33.102,46.812c5.645-1.695,11.196-0.124,12.958,3.918"/>
			
				<path id="XMLID_823_" fill="none" stroke="#9B9B9B" stroke-width="1.5" stroke-linecap="round" stroke-linejoin="round" stroke-miterlimit="10" d="
				M46.6,53.064c0.191,4.028-3.097,8.482-8.316,10.759c-3.04,1.326-6.177,1.669-8.824,1.154"/>
		</g>
		<path id="XMLID_116_" fill="#D7EAE6" d="M21.559,45.193c-0.031,0.346-0.031,0.694-0.004,1.033
			c0.285,3.586,2.747,6.293,4.762,9.062c0.633,0.87,1.21,1.803,1.559,2.827c0.381,1.116,0.291,2.151,0.165,3.305
			c-0.009,0.084-0.01,0.152,0.023,0.208c0,0,0.033,0.054,0.086,0.079c0.118,0.056,0.569-0.314,1.149-1.266
			c0.586-0.963,0.858-1.79,0.875-1.842c0.792-2.461,0.691-4.835,0.691-4.835c-0.059-1.372-0.555-8.269-5.48-10.96
			c-0.796-0.435-1.525-0.66-2.026-0.783c-0.265,0.166-0.636,0.442-0.967,0.875C21.887,43.552,21.633,44.367,21.559,45.193z"/>
		<path id="XMLID_129_" fill="#D7EAE6" d="M25.232,61.962c0.014-0.05,0.026-0.101,0.038-0.151c0.285-1.239,0.07-2.447-0.576-3.539
			c-0.688-1.164-1.558-2.218-2.349-3.312c-2.034-2.813-2.565-4.064-2.832-4.881c-0.387-1.184-0.513-2.345-0.53-2.51
			c-0.071-0.691-0.127-1.231-0.023-1.957c0.104-0.724,0.343-1.47,0.484-1.911c0.26-0.813,0.391-1.019,0.322-1.067
			c-0.192-0.134-1.562,1.253-2.557,2.96c-0.502,0.861-0.789,1.576-0.875,1.842c-0.504,1.567-0.691,3.196-0.691,4.835
			c0,1.324,0.546,8.367,5.48,10.96c0.568,0.299,1.51,0.804,2.175,0.736C24.363,63.858,24.975,62.917,25.232,61.962z"/>
	</g>
</g>
</svg>
