<?xml version="1.0" encoding="utf-8"?>
<!-- Generator: Adobe Illustrator 18.1.1, SVG Export Plug-In . SVG Version: 6.00 Build 0)  -->
<svg version="1.1" baseProfile="tiny" id="Layer_1" xmlns="http://www.w3.org/2000/svg" xmlns:xlink="http://www.w3.org/1999/xlink"
	 x="0px" y="0px" viewBox="0 0 85.04 85.04" xml:space="preserve">
<g>
	<g>
		<circle fill="#FFFFFF" stroke="#AFD46A" stroke-width="3" stroke-miterlimit="10" cx="42.561" cy="42.604" r="39.685"/>
	</g>
</g>
<g id="XMLID_844_">
	
		<path id="XMLID_695_" fill="none" stroke="#9B9B9B" stroke-width="1.5" stroke-linecap="round" stroke-linejoin="round" stroke-miterlimit="10" d="
		M58.405,47.318c-2.137,3.19-1.88,7.362-1.295,10.285c0.495,2.477,0.568,5.017,0.166,7.504"/>
	
		<path id="XMLID_691_" fill="none" stroke="#9B9B9B" stroke-width="1.5" stroke-linecap="round" stroke-linejoin="round" stroke-miterlimit="10" d="
		M27.632,46.999c0,0,2.823,3.601,1.83,10.824c-0.334,2.428-0.186,4.895,0.356,7.283"/>
	
		<path id="XMLID_693_" fill="none" stroke="#9B9B9B" stroke-width="1.5" stroke-linecap="round" stroke-linejoin="round" stroke-miterlimit="10" d="
		M42.836,14.428c-3.458-1.198-7.291,0.025-9.939,2.406c-3.384,3.042-4.908,7.678-4.843,12.145c0.033,2.257,0.451,4.515,1.248,6.627
		c0.923,2.445,2.576,4.519,3.508,6.958"/>
	
		<path id="XMLID_681_" fill="none" stroke="#9B9B9B" stroke-width="1.5" stroke-linecap="round" stroke-linejoin="round" stroke-miterlimit="10" d="
		M44.179,15.261c0.878,1.941,3.236,3.434,3.142,5.719c-0.109,2.645-2.472,4.97-4.708,6.07c-3.221,1.584-7.241,1.112-9.993,3.718"/>
	
		<path id="XMLID_682_" fill="none" stroke="#9B9B9B" stroke-width="1.5" stroke-linecap="round" stroke-linejoin="round" stroke-miterlimit="10" d="
		M48.321,23.958c-0.597,2.491,3.191,3.056,2.886,5.602"/>
	
		<path id="XMLID_718_" fill="none" stroke="#9B9B9B" stroke-width="1.5" stroke-linecap="round" stroke-linejoin="round" stroke-miterlimit="10" d="
		M44.179,15.261c3.911-0.396,7.146,2.109,8.756,5.532c2.788,5.925,1.771,13.496-2.734,18.362"/>
	
		<path id="XMLID_707_" fill="none" stroke="#9B9B9B" stroke-width="1.5" stroke-linecap="round" stroke-linejoin="round" stroke-miterlimit="10" d="
		M38.72,43.933c0.78,1.544,1.092,3.298,1.07,5.028c-0.039,3.144-1.173,6.058-3.18,8.478c-0.036-3.282-1.913-6.236-3.873-8.869
		c-0.887-1.192-1.813-2.373-2.443-3.719c-0.63-1.346-0.944-2.899-0.543-4.33"/>
	
		<path id="XMLID_725_" fill="none" stroke="#9B9B9B" stroke-width="1.5" stroke-linecap="round" stroke-linejoin="round" stroke-miterlimit="10" d="
		M33.623,52.749c-0.289,0.88-0.37,1.621-0.391,2.129c-0.082,2.023,0.665,3.605,1.26,4.865c0.381,0.807,0.765,1.441,1.043,1.868"/>
	
		<path id="XMLID_726_" fill="none" stroke="#9B9B9B" stroke-width="1.5" stroke-linecap="round" stroke-linejoin="round" stroke-miterlimit="10" d="
		M40.4,52.662c0.546,1.323,1.416,3.999,0.565,6.646c-0.097,0.301-0.427,1.413-1.257,2.662c-1.074,1.618-2.374,2.573-3.174,3.072"/>
	
		<path id="XMLID_727_" fill="none" stroke="#9B9B9B" stroke-width="1.5" stroke-linecap="round" stroke-linejoin="round" stroke-miterlimit="10" d="
		M43.908,18.638c0.861,1.564,0.777,3.331-0.537,4.614c-0.978,0.955-2.317,1.548-3.599,1.968c-2.006,0.658-4.303,0.873-5.931,2.339"
		/>
	
		<path id="XMLID_728_" fill="none" stroke="#9B9B9B" stroke-width="1.5" stroke-linecap="round" stroke-linejoin="round" stroke-miterlimit="10" d="
		M41.531,18.399c0.169,0.616,0.059,1.303-0.295,1.835c-0.436,0.656-1.177,1.031-1.884,1.378"/>
	
		<path id="XMLID_730_" fill="none" stroke="#9B9B9B" stroke-width="1.5" stroke-linecap="round" stroke-linejoin="round" stroke-miterlimit="10" d="
		M42.051,15.869c0,0-7.689-0.391-9.774,5.951"/>
	
		<path id="XMLID_68_" fill="none" stroke="#9B9B9B" stroke-width="1.5" stroke-linecap="round" stroke-linejoin="round" stroke-miterlimit="10" d="
		M42.837,52.661h3.076c1.496,0,2.723-1.172,2.815-2.667c0.166-2.572,0.829-4.34,1.194-5.136"/>
	
		<path id="XMLID_784_" fill="none" stroke="#9B9B9B" stroke-width="1.5" stroke-linecap="round" stroke-linejoin="round" stroke-miterlimit="10" d="
		M46.626,39.72v0.537c0,2.287,1.52,4.128,3.729,4.743l7.22,2.036c2.36,0.654,4.305,2.309,5.34,4.53
		c0.009,0.017,0.017,0.03,0.026,0.052c0.45,0.996,0.624,2.101,0.541,3.192L62.71,65.107"/>
	
		<path id="XMLID_696_" fill="none" stroke="#9B9B9B" stroke-width="1.5" stroke-linecap="round" stroke-linejoin="round" stroke-miterlimit="10" d="
		M29.026,46.327l-2.51,0.708h-0.004c-2.36,0.654-4.301,2.309-5.34,4.53c0,0-0.004,0.013-0.009,0.017
		c-0.472,1.026-0.637,2.161-0.537,3.287l1.569,10.236"/>
	
		<path id="XMLID_687_" fill="none" stroke="#9B9B9B" stroke-width="1.5" stroke-linecap="round" stroke-linejoin="round" stroke-miterlimit="10" d="
		M49.74,32.002c-0.036,1.159-0.176,2.466-0.521,3.766c-0.219,0.823-0.691,1.641-1.292,2.416l-0.104,0.151
		c-1.229,1.549-2.964,2.917-4.213,3.8c-0.967,0.679-2.178,0.679-3.144,0c-1.897-1.341-4.916-3.803-5.584-6.315
		c-0.345-1.299-0.485-2.607-0.521-3.766"/>
	<g id="XMLID_208_">
		<path id="XMLID_441_" fill="#D7EAE6" d="M55.981,59.603c-0.244-2.64-0.958-5.075-0.714-7.299c0.23-2.097,0.345-3.146,0.706-3.776
			c0.031-0.054,0.104-0.178,0.092-0.338c-0.031-0.415-0.598-0.6-3.899-1.474c-0.32-0.085-0.714-0.183-1.044,0.017
			c-0.343,0.208-0.439,0.632-0.553,1.242c-0.228,1.226-0.225,1.589-0.338,2.21c-0.14,0.769-0.348,1.843-1.136,2.786
			c-0.197,0.236-0.476,0.563-0.944,0.829c-0.695,0.394-1.356,0.365-2.349,0.368c-0.864,0.003-1.981-0.029-3.293-0.161
			c0.207,0.925,0.422,2.423,0.138,4.221c-0.058,0.367-0.257,1.508-0.798,2.732c-1.127,2.549-3.146,4.114-4.416,4.913
			c-0.531,0.334-1.237,0.276-1.679-0.17c-0.143-0.144-0.199-0.261-0.199-0.261c-0.033-0.07-0.195-0.434-0.044-0.863
			c0.149-0.423,0.495-0.606,0.566-0.641c-0.128,0.064-1.169-1.266-1.261-1.382c-0.654-0.821-1.218-1.715-1.663-2.667
			c-0.585-1.251-0.949-2.605-1.066-3.981c-0.124-1.469,0.127-2.792,0.418-4.224c0.037-0.183,0.074-0.372,0.032-0.553
			c-0.04-0.171-0.146-0.318-0.25-0.46c-0.697-0.951-1.394-1.902-2.091-2.853c-0.112-0.152-0.228-0.309-0.393-0.401
			s-0.393-0.1-0.526,0.033c1.1,2.582,1.654,5.395,1.615,8.201c-0.05,3.64-0.698,7.049,0.518,10.593
			c1.9-0.001,9.098-0.006,10.813-0.006c4.458,0,8.917-0.016,13.375,0.006C56.16,63.439,56.126,61.18,55.981,59.603z"/>
		<path id="XMLID_466_" fill="#D7EAE6" d="M37.23,66.242c-0.04,0-0.079,0-0.119,0C37.157,66.243,37.198,66.243,37.23,66.242z"/>
	</g>
</g>
</svg>
