<?xml version="1.0" encoding="utf-8"?>
<!-- Generator: Adobe Illustrator 18.1.1, SVG Export Plug-In . SVG Version: 6.00 Build 0)  -->
<svg version="1.1" baseProfile="tiny" id="Layer_1" xmlns="http://www.w3.org/2000/svg" xmlns:xlink="http://www.w3.org/1999/xlink"
	 x="0px" y="0px" viewBox="0 0 85.04 85.04" xml:space="preserve">
<g>
	<g>
		<g>
			<circle fill="#FFFFFF" stroke="#AFD46A" stroke-width="3" stroke-miterlimit="10" cx="42.667" cy="42.071" r="39.685"/>
		</g>
	</g>
	<g>
		<g>
			<path fill="#AFD46A" stroke="#AFD46A" stroke-miterlimit="10" d="M63.09,14.957c-0.069-0.252-0.239-0.465-0.471-0.585l0,0
				c-0.458-0.242-1.025-0.067-1.267,0.39l-0.002,0.003c0,0.026-4.75,9.241-19.332,10.847c-1.902,0.203-3.761,0.699-5.512,1.471
				c-3.133,1.362-5.72,3.732-7.35,6.734c-1.522,2.82-2.153,6.035-1.808,9.22c0.254,2.322,1.03,4.557,2.269,6.537
				c-2.59,1.86-10.806,8.288-11.546,15.188c-0.054,0.515,0.319,0.976,0.834,1.031c0.515,0.054,0.976-0.319,1.031-0.834
				c0.679-6.159,8.386-12.132,10.79-13.862c2.885,3.543,7.205,5.543,11.842,5.869c3.12,0.201,6.244-0.331,9.122-1.554
				c3.124-1.311,5.883-3.36,8.039-5.973C65.286,42.706,67.933,31.388,63.09,14.957z M31.263,48.648L31.263,48.648
				c-0.357-0.563-0.672-1.152-0.943-1.761c-0.569-1.286-0.936-2.653-1.088-4.051c-0.317-2.806,0.225-5.642,1.554-8.133
				c1.437-2.641,3.716-4.725,6.475-5.921c1.577-0.687,3.251-1.125,4.962-1.3c9.625-1.036,15.286-5.32,18.208-8.428
				c-1.717,5.651-4.672,10.849-8.651,15.214l-0.57-5.739c-0.029-0.517-0.472-0.913-0.989-0.884
				c-0.517,0.029-0.913,0.472-0.884,0.989c0.001,0.026,0.004,0.051,0.007,0.076l0.73,7.376
				C45.721,40.504,39.665,44.944,31.263,48.648z M58.277,48.238v0.005c-1.96,2.386-4.47,4.26-7.314,5.46
				c-2.616,1.105-5.455,1.581-8.288,1.388c-3.944-0.2-7.645-1.966-10.282-4.906c3.09-1.367,6.078-2.955,8.941-4.75l8.231,1.554
				c0.512,0.08,0.991-0.27,1.071-0.781c0.077-0.493-0.246-0.961-0.735-1.063l-6.325-1.197c2.92-2.006,5.639-4.291,8.117-6.822
				c0.045-0.039,0.087-0.082,0.124-0.13c6.537-6.807,9.319-13.541,10.479-17.685C65.498,32.968,63.048,42.468,58.277,48.238z"/>
		</g>
	</g>
</g>
</svg>
