<?xml version="1.0" encoding="utf-8"?>
<!-- Generator: Adobe Illustrator 18.1.1, SVG Export Plug-In . SVG Version: 6.00 Build 0)  -->
<svg version="1.1" baseProfile="tiny" id="Layer_1" xmlns="http://www.w3.org/2000/svg" xmlns:xlink="http://www.w3.org/1999/xlink"
	 x="0px" y="0px" viewBox="0 0 481.89 283.46" xml:space="preserve">
<g>
	<path fill="#50AA51" d="M2.727,167.478c0.703-0.809,1.934-1.583,3.693-2.392s3.693-1.196,5.874-1.196
		c1.653,0,3.236,0.352,4.783,1.055c1.548,0.703,2.954,1.829,4.221,3.376s2.462,3.165,3.552,4.854
		c1.09,1.688,2.145,3.869,3.236,6.507c1.09,2.638,2.04,5.065,2.849,7.316c0.809,2.251,1.688,5.03,2.603,8.371
		s1.688,6.19,2.321,8.582c0.633,2.392,1.372,5.381,2.251,8.969c0.879,3.588,1.618,6.436,2.251,8.512
		c3.095,11.36,6.225,21.912,9.391,31.69l1.231-3.447c0.809-2.392,2.04-6.12,3.693-11.22c1.653-5.065,3.236-10.305,4.783-15.687
		c8.23-28.102,13.963-44.879,17.269-50.366c2.779-4.572,7.105-6.894,12.943-6.894c3.201,0,6.05,0.95,8.617,2.849
		c-0.317,1.688-2.145,7.245-5.487,16.671c-3.341,9.426-7.914,22.404-13.717,38.935s-10.974,31.514-15.476,44.985
		c-3.306,4.572-8.019,6.894-14.174,6.894c-2.568,0-4.783-0.317-6.612-0.985c-1.864-0.633-3.306-1.337-4.396-2.005
		c-1.09-0.703-2.181-2.11-3.306-4.256s-1.934-3.904-2.392-5.311c-0.457-1.407-1.301-3.869-2.532-7.492
		c-12.275-37.845-21.771-66.932-28.559-87.261L2.727,167.478z"/>
	<path fill="#50AA51" d="M137.083,248.795c2.462,0.985,3.693,3.482,3.693,7.492c0,3.869-2.11,7.14-6.331,9.707
		c-4.221,2.603-8.934,3.869-14.174,3.869c-3.376,0-6.823-0.633-10.235-1.864c-3.447-1.231-6.718-3.095-9.848-5.522
		c-3.13-2.427-5.663-5.768-7.632-10.024c-1.97-4.221-2.919-9.039-2.919-14.42c0-8.969,2.568-16.777,7.703-23.46
		c5.135-6.683,11.818-10.024,20.048-10.024c5.768,0,10.411,1.548,14.034,4.643c3.588,3.095,5.381,7.421,5.381,13.014
		c0,10.974-8.019,20.364-24.022,28.243c2.462,4.291,5.768,6.436,9.848,6.436c1.125,0,2.216-0.141,3.306-0.457
		c1.09-0.281,2.04-0.633,2.849-1.055c0.809-0.387,1.723-0.95,2.708-1.653c0.985-0.703,1.688-1.231,2.145-1.653
		c0.457-0.387,1.125-1.02,2.005-1.864C136.485,249.357,136.977,248.9,137.083,248.795z M118.301,216.507
		c-2.145,0-4.185,1.477-6.085,4.396c-1.899,2.954-2.849,7.14-2.849,12.627c0,2.779,0.141,5.346,0.457,7.632
		c4.819-3.201,8.582-6.261,11.255-9.25c2.673-2.99,4.01-6.436,4.01-10.305C125.054,218.195,122.803,216.507,118.301,216.507z"/>
	<path fill="#50AA51" d="M209.044,229.52c-3.095,1.794-6.472,2.708-10.165,2.708c-6.788,0-10.165-3.482-10.165-10.446
		c0-3.095-0.317-4.643-0.914-4.643c-0.528,0-1.231,0.387-2.145,1.196c-0.914,0.809-2.145,2.321-3.623,4.572s-2.99,5.1-4.467,8.512
		c-1.477,3.447-3.095,8.16-4.854,14.139c-1.759,5.979-3.306,12.697-4.607,20.189c-1.864,0.879-4.221,1.337-7.105,1.337
		c-2.673,0-4.959-0.563-6.859-1.653c-1.899-1.09-3.306-2.357-4.221-3.799c-0.914-1.442-1.653-3.447-2.145-6.05
		c-0.528-2.603-0.809-4.713-0.844-6.436c-0.035-1.688-0.07-3.974-0.07-6.858c0-2.005,0.035-4.924,0.141-8.828
		c0.105-3.904,0.141-6.612,0.141-8.23c0-6.964-0.703-12.662-2.145-17.023c3.482-3.201,7.281-4.783,11.396-4.783
		c2.673,0,4.924,0.879,6.788,2.603c1.864,1.759,2.884,4.361,3.095,7.843c0,0.703-0.035,3.834-0.07,9.426
		c-0.035,5.592,0.035,9.918,0.246,13.014c4.115-11.149,8.617-18.958,13.576-23.389c4.924-4.432,9.356-6.647,13.26-6.647
		c3.588,0,6.507,0.528,8.723,1.583c2.216,1.055,3.799,2.673,4.783,4.854c0.985,2.181,1.618,4.361,1.934,6.507
		c0.317,2.145,0.457,4.959,0.457,8.441v1.864H209.044z"/>
	<path fill="#50AA51" d="M252.657,211.126c7.386,0,13.084,2.638,17.093,7.914c4.01,5.276,6.014,11.642,6.014,19.133
		c0,8.758-2.603,16.531-7.773,23.319c-5.205,6.788-12.24,10.165-21.173,10.165c-4.326-0.105-7.562-0.95-9.778-2.532
		c-2.216-1.583-3.306-3.588-3.306-5.979c0-1.583,0.492-3.447,1.477-5.522c0.985-2.075,2.286-3.728,3.939-4.924
		c0.703,1.477,1.934,2.779,3.623,3.799c1.688,1.055,3.482,1.583,5.311,1.583c2.462,0,4.572-1.618,6.331-4.854
		c1.759-3.236,2.638-7.597,2.638-13.084c0-4.291-0.95-8.054-2.849-11.36c-1.899-3.271-4.291-4.924-7.175-4.924
		c-4.607,0-8.617,3.588-12.029,10.763c-1.97,24.304-6.894,36.473-14.807,36.473c-2.568,0-4.678-0.563-6.331-1.653
		c1.125-3.974,1.97-8.265,2.532-12.838c0.563-4.572,0.914-8.547,0.985-11.888c0.106-3.341,0.141-8.512,0.141-15.476
		c0-21.42-1.196-40.483-3.552-57.224c2.357-1.301,4.608-1.934,6.788-1.934c5.663,0,9.567,1.864,11.712,5.592
		s3.236,9.25,3.236,16.531c0,0.492,0.035,2.357,0.07,5.522c0.035,3.201,0.07,6.647,0.07,10.376s-0.035,7.456-0.141,11.149
		C240.734,213.834,246.397,211.126,252.657,211.126z"/>
	<path fill="#50AA51" d="M329.719,248.795c2.462,0.985,3.693,3.482,3.693,7.492c0,3.869-2.11,7.14-6.331,9.707
		c-4.221,2.603-8.934,3.869-14.174,3.869c-3.376,0-6.823-0.633-10.235-1.864c-3.447-1.231-6.718-3.095-9.848-5.522
		c-3.13-2.427-5.663-5.768-7.632-10.024c-1.97-4.221-2.919-9.039-2.919-14.42c0-8.969,2.568-16.777,7.703-23.46
		c5.135-6.683,11.818-10.024,20.048-10.024c5.768,0,10.411,1.548,14.034,4.643c3.588,3.095,5.381,7.421,5.381,13.014
		c0,10.974-8.019,20.364-24.022,28.243c2.462,4.291,5.768,6.436,9.848,6.436c1.125,0,2.251-0.141,3.306-0.457
		c1.09-0.281,2.04-0.633,2.849-1.055c0.809-0.387,1.723-0.95,2.708-1.653c0.985-0.703,1.688-1.231,2.145-1.653
		c0.457-0.422,1.125-1.02,2.005-1.864C329.156,249.357,329.613,248.9,329.719,248.795z M310.902,216.507
		c-2.145,0-4.185,1.477-6.085,4.396c-1.899,2.954-2.849,7.14-2.849,12.627c0,2.779,0.141,5.346,0.457,7.632
		c4.819-3.201,8.582-6.261,11.255-9.25c2.673-2.99,4.01-6.436,4.01-10.305C317.69,218.195,315.404,216.507,310.902,216.507z"/>
	<path fill="#50AA51" d="M403.052,246.684c0,7.667,1.864,13.295,5.557,16.882c-0.633,1.688-1.864,3.095-3.693,4.185
		c-1.864,1.09-3.799,1.653-5.839,1.653c-4.221,0-7.914-2.04-11.079-6.12c-3.201-4.08-4.783-9.813-4.783-17.199
		c0-3.799,0.106-8.476,0.317-14.034c0.211-5.592,0.317-8.758,0.317-9.567c0-2.075-0.422-3.13-1.231-3.13
		c-0.633,0-1.372,0.281-2.321,0.809c-0.914,0.563-2.251,1.794-4.01,3.728c-1.759,1.934-3.517,4.467-5.311,7.562
		c-1.794,3.095-3.834,7.527-6.085,13.295c-2.251,5.768-4.361,12.451-6.331,20.013c-1.864,0.879-3.904,1.337-6.155,1.337
		c-2.884,0-5.241-0.492-7.105-1.512c-1.864-0.985-3.201-2.497-4.01-4.572c-0.809-2.04-1.372-4.045-1.618-6.05
		c-0.246-2.005-0.387-4.467-0.387-7.456c0-3.095,0.176-7.632,0.528-13.682c0.352-6.014,0.528-10.235,0.528-12.627
		c0-4.889-0.457-8.969-1.372-12.24c3.588-3.201,7.492-4.783,11.712-4.783c2.673,0,4.889,0.879,6.612,2.603
		c1.759,1.759,2.603,4.361,2.603,7.843c0,0.879-0.141,4.045-0.457,9.426s-0.457,9.707-0.457,13.014
		c4.607-8.054,8.934-14.28,12.943-18.606c4.01-4.326,6.999-6.894,9.004-7.703s4.185-1.196,6.542-1.196
		c6.472,0,10.763,1.864,12.873,5.592c2.11,3.728,3.165,9.004,3.165,15.757c0,2.884-0.07,6.014-0.246,9.356
		C403.122,242.64,403.052,245.102,403.052,246.684z"/>
	<path fill="#50AA51" d="M472.234,239.967c0,3.271,0.844,7.351,2.532,12.169c1.688,4.854,3.517,8.195,5.487,10.094
		c-1.864,1.477-4.361,2.251-7.562,2.251c-4.326,0-7.562-1.688-9.778-5.065c-2.216-3.376-3.552-7.14-4.08-11.22
		c-2.04,5.592-5.698,10.27-10.938,14.034c-5.241,3.799-10.376,5.698-15.405,5.698c-5.663,0-10.341-2.005-14.104-5.979
		s-5.627-9.074-5.627-15.229c0-10.552,3.658-19.978,11.009-28.243c7.351-8.265,16.214-12.416,26.59-12.416
		c5.452,0,10.411,1.653,14.948,4.924c4.502,3.271,7.245,6.718,8.16,10.305C472.656,224.878,472.234,231.103,472.234,239.967z
		 M435.867,252.523c3.904,0,8.019-4.01,12.416-12.029c4.361-8.019,7.07-15.018,8.089-20.998c-1.126-2.779-2.814-4.185-5.1-4.185
		c-3.904,0-8.019,3.763-12.31,11.29c-4.291,7.527-6.472,13.963-6.472,19.344c0,1.688,0.317,3.201,0.914,4.572
		C434.038,251.855,434.847,252.523,435.867,252.523z"/>
</g>
<g>
	<path fill="#97C24C" d="M121.924,128.261c12.38,18.184,19.942,27.364,42.593,28.735c21.666,1.301,35.981,8.758,45.336,22.088
		c-15.827-7.14-31.479-11.396-46.321-11.923C139.861,166.317,125.687,151.404,121.924,128.261z"/>
	<g>
		<path fill="#50AA51" d="M215.129,166.176c-7.773-51.984-28.63-84.307-77.378-76.991c-13.4,2.005-24.093-10.059-33.624-27.926
			c10.938,55.888,37.458,88,77.765,88.703C193.885,150.173,204.648,156.363,215.129,166.176z"/>
		<path fill="#50AA51" d="M232.328,166.176c7.773-51.984,28.63-84.307,77.378-76.991c13.4,2.005,24.093-10.059,33.624-27.926
			c-10.938,55.888-37.458,88-77.765,88.703C253.537,150.173,242.809,156.363,232.328,166.176z"/>
	</g>
	<path fill="#97C24C" d="M325.533,128.261c-12.38,18.184-19.942,27.364-42.593,28.735c-21.666,1.301-35.981,8.758-45.336,22.088
		c15.827-7.14,31.479-11.396,46.321-11.923C307.56,166.317,321.735,151.404,325.533,128.261z"/>
</g>
<path fill="#97C24C" d="M223.711,8.958c-9.954,35.453-42.382,38.408-36.297,64.751c12.662,32.71,29.65,25.851,36.297,72.7
	c6.647-46.849,23.635-39.99,36.297-72.7C266.128,47.366,233.7,44.412,223.711,8.958z"/>
</svg>
