<?xml version="1.0" encoding="utf-8"?>
<!-- Generator: Adobe Illustrator 23.0.3, SVG Export Plug-In . SVG Version: 6.00 Build 0)  -->
<svg version="1.1" id="Layer_1" xmlns="http://www.w3.org/2000/svg" xmlns:xlink="http://www.w3.org/1999/xlink" x="0px" y="0px"
	 viewBox="0 0 136.08 108.38" style="enable-background:new 0 0 136.08 108.38;" xml:space="preserve">
<style type="text/css">
	.st0{fill:#1D1D1B;}
	.st1{fill:#51AA51;}
	.st2{fill:#97C24C;}
</style>
<g>
	<path class="st0" d="M22.28,95.5l0.01-2.43h-8.41v-10h0.84v9.18h6.28v-9.18h0.86v9.18h1.23v3.24H22.28z"/>
	<path class="st0" d="M27.33,86.06c2.6,0,3.48,2.16,3.13,3.96h-5.7c0.1,1.74,1.54,2.47,3.07,2.47c0.83,0,1.66-0.21,2.24-0.56v0.8
		c-0.61,0.33-1.49,0.5-2.36,0.5c-2,0-3.77-1.11-3.77-3.58C23.94,87.29,25.67,86.06,27.33,86.06z M27.38,86.8
		c-1.34,0-2.56,0.87-2.63,2.5h4.98C29.85,88.33,29.31,86.8,27.38,86.8z"/>
	<path class="st0" d="M32.21,93.07v-6.86h0.81v3.06h4.46v-3.06h0.8v6.86h-0.8v-3.06h-4.46v3.06H32.21z"/>
	<path class="st0" d="M42.29,93.07v-6.1h-2.66v-0.76h6.13v0.76H43.1v6.1H42.29z"/>
	<path class="st0" d="M50.76,86.06c1.96,0,3.41,1.47,3.41,3.58s-1.46,3.58-3.41,3.58c-1.37,0-2.33-0.7-2.84-1.49v4.47H47.1v-10h0.73
		v1.41C48.43,86.76,49.39,86.06,50.76,86.06z M50.66,86.8c-1.33,0-2.36,0.88-2.76,1.91v1.86c0.4,1.03,1.43,1.91,2.76,1.91
		c1.51,0,2.7-1.07,2.7-2.84C53.36,87.89,52.17,86.8,50.66,86.8z"/>
	<path class="st0" d="M67.68,83.08v10h-0.84v-9.18h-4.24c-0.4,4.76-0.8,9.31-3.3,9.33c-0.24,0-0.51-0.04-0.8-0.14v-0.81
		c0.21,0.09,0.4,0.11,0.67,0.11c1.91,0,2.26-4.61,2.61-9.3H67.68z"/>
	<path class="st0" d="M72.95,86.06c2.6,0,3.48,2.16,3.13,3.96h-5.7c0.1,1.74,1.54,2.47,3.07,2.47c0.83,0,1.66-0.21,2.24-0.56v0.8
		c-0.61,0.33-1.49,0.5-2.36,0.5c-2,0-3.77-1.11-3.77-3.58C69.57,87.29,71.29,86.06,72.95,86.06z M73.01,86.8
		c-1.34,0-2.56,0.87-2.63,2.5h4.98C75.48,88.33,74.94,86.8,73.01,86.8z"/>
	<path class="st0" d="M82.22,93.07v-2.5c-0.67,0.29-1.31,0.4-2.18,0.4c-1.61,0-2.7-0.76-2.7-2.44v-2.31h0.81v2.26
		c0,1.3,0.81,1.76,2.11,1.76c0.76,0,1.36-0.11,1.96-0.37v-3.64h0.81v6.86H82.22z"/>
	<path class="st0" d="M88.18,86.06c2.6,0,3.48,2.16,3.13,3.96h-5.7c0.1,1.74,1.54,2.47,3.07,2.47c0.83,0,1.66-0.21,2.24-0.56v0.8
		c-0.61,0.33-1.49,0.5-2.36,0.5c-2,0-3.77-1.11-3.77-3.58C84.8,87.29,86.53,86.06,88.18,86.06z M88.24,86.8
		c-1.34,0-2.56,0.87-2.63,2.5h4.98C90.71,88.33,90.17,86.8,88.24,86.8z"/>
	<path class="st0" d="M96.23,93.23c-2.08,0-3.54-1.5-3.54-3.96c0-2.26,0.91-3.9,2.14-4.67c1.97-1.2,3.26-0.73,4.23-1.68v0.86
		c-0.97,0.77-2.08,0.44-3.76,1.43c-1.03,0.63-1.53,1.7-1.8,2.94c0.51-1.01,1.63-1.64,2.84-1.64c1.83,0,3.36,1.33,3.36,3.36
		C99.7,91.95,98.28,93.23,96.23,93.23z M96.21,92.46c1.66,0,2.68-1.08,2.68-2.58s-1.04-2.6-2.66-2.6c-1.44,0-2.58,1.01-2.74,2.41
		C93.5,91.26,94.57,92.46,96.21,92.46z"/>
	<path class="st0" d="M101.46,93.07v-6.86h0.81v3.06h4.46v-3.06h0.8v6.86h-0.8v-3.06h-4.46v3.06H101.46z"/>
	<path class="st0" d="M112.89,86.06c1.87,0,3.61,1.27,3.61,3.58s-1.74,3.58-3.61,3.58c-1.84,0-3.6-1.27-3.6-3.58
		S111.04,86.06,112.89,86.06z M112.9,86.83c-1.53,0-2.8,1.03-2.8,2.81s1.27,2.81,2.8,2.81c1.51,0,2.79-1.03,2.79-2.81
		S114.41,86.83,112.9,86.83z"/>
	<path class="st0" d="M118.26,93.07v-6.86h0.81v5.56l4.64-5.56h0.7v6.86h-0.8v-5.56l-4.66,5.56H118.26z M121.33,85.1
		c-0.67,0-1.31-0.14-1.9-0.58v-0.76c0.64,0.47,1.23,0.63,1.9,0.63c0.69,0,1.26-0.16,1.91-0.63v0.76
		C122.65,84.96,122.02,85.1,121.33,85.1z"/>
	<path class="st0" d="M22.26,108.22v-10h0.84v4.48h2.61l3.23-4.48h0.97l-3.5,4.87l3.84,5.13h-0.99l-3.53-4.71H23.1v4.71H22.26z"/>
	<path class="st0" d="M34.08,101.21c1.87,0,3.61,1.27,3.61,3.58s-1.74,3.58-3.61,3.58c-1.84,0-3.6-1.27-3.6-3.58
		S32.23,101.21,34.08,101.21z M34.09,101.98c-1.53,0-2.8,1.03-2.8,2.81s1.27,2.81,2.8,2.81c1.51,0,2.79-1.03,2.79-2.81
		S35.61,101.98,34.09,101.98z"/>
	<path class="st0" d="M42.68,101.21c0.73,0,1.49,0.16,2.07,0.56v0.79c-0.53-0.4-1.27-0.6-1.97-0.6c-1.47,0-2.98,0.84-2.98,2.87
		c0,1.93,1.43,2.81,2.9,2.81c0.76,0,1.53-0.2,2.13-0.56v0.81c-0.66,0.33-1.41,0.49-2.24,0.49c-1.77,0-3.6-1.11-3.6-3.54
		C38.98,102.31,40.89,101.21,42.68,101.21z"/>
	<path class="st0" d="M46.57,108.22v-6.86h0.89l2.77,4.06l2.77-4.06h0.87v6.86h-0.77v-5.66l-2.57,3.76h-0.6l-2.58-3.76v5.66H46.57z"
		/>
	<path class="st0" d="M59.01,101.21c2.6,0,3.48,2.16,3.13,3.96h-5.7c0.1,1.74,1.54,2.47,3.07,2.47c0.83,0,1.66-0.21,2.24-0.56v0.8
		c-0.61,0.33-1.49,0.5-2.36,0.5c-2,0-3.77-1.11-3.77-3.58C55.63,102.44,57.35,101.21,59.01,101.21z M59.07,101.95
		c-1.34,0-2.56,0.87-2.63,2.5h4.98C61.54,103.48,61,101.95,59.07,101.95z"/>
	<path class="st0" d="M65.53,108.22v-6.1h-2.66v-0.76H69v0.76h-2.66v6.1H65.53z"/>
	<path class="st0" d="M73.17,101.21c1.87,0,3.61,1.27,3.61,3.58s-1.74,3.58-3.61,3.58c-1.84,0-3.6-1.27-3.6-3.58
		S71.33,101.21,73.17,101.21z M73.18,101.98c-1.53,0-2.8,1.03-2.8,2.81s1.27,2.81,2.8,2.81c1.51,0,2.79-1.03,2.79-2.81
		S74.7,101.98,73.18,101.98z"/>
	<path class="st0" d="M78.06,108.32c-0.23,0-0.46-0.03-0.73-0.13v-0.66c0.17,0.07,0.33,0.09,0.49,0.09c1.26,0,1.71-2.34,1.84-6.26
		h4.83v6.86h-0.8v-6.1h-3.23C80.26,105.89,79.73,108.32,78.06,108.32z"/>
	<path class="st0" d="M89.85,101.21c1.87,0,3.61,1.27,3.61,3.58s-1.74,3.58-3.61,3.58c-1.84,0-3.6-1.27-3.6-3.58
		S88,101.21,89.85,101.21z M89.86,101.98c-1.53,0-2.8,1.03-2.8,2.81s1.27,2.81,2.8,2.81c1.51,0,2.78-1.03,2.78-2.81
		S91.37,101.98,89.86,101.98z"/>
	<path class="st0" d="M95.22,108.22v-6.86h4.93v0.76h-4.11v6.1H95.22z"/>
	<path class="st0" d="M101.49,108.22v-6.86h0.81v5.56l4.64-5.56h0.7v6.86h-0.8v-5.56l-4.66,5.56H101.49z"/>
	<path class="st0" d="M109.88,108.22v-6.86h0.81v5.56l4.64-5.56h0.7v6.86h-0.8v-5.56l-4.66,5.56H109.88z"/>
</g>
<g>
	<path class="st1" d="M0.31,45.07c0.2-0.23,0.55-0.45,1.05-0.68c0.5-0.23,1.05-0.34,1.67-0.34c0.47,0,0.92,0.1,1.36,0.3
		c0.44,0.2,0.84,0.52,1.2,0.96c0.36,0.44,0.7,0.9,1.01,1.38c0.31,0.48,0.61,1.1,0.92,1.85c0.31,0.75,0.58,1.44,0.81,2.08
		c0.23,0.64,0.48,1.43,0.74,2.38c0.26,0.95,0.48,1.76,0.66,2.44c0.18,0.68,0.39,1.53,0.64,2.55c0.25,1.02,0.46,1.83,0.64,2.42
		c0.88,3.23,1.77,6.23,2.67,9.01l0.35-0.98c0.23-0.68,0.58-1.74,1.05-3.19c0.47-1.44,0.92-2.93,1.36-4.46
		c2.34-7.99,3.97-12.76,4.91-14.32c0.79-1.3,2.02-1.96,3.68-1.96c0.91,0,1.72,0.27,2.45,0.81c-0.09,0.48-0.61,2.06-1.56,4.74
		c-0.95,2.68-2.25,6.37-3.9,11.07c-1.65,4.7-3.12,8.96-4.4,12.79c-0.94,1.3-2.28,1.96-4.03,1.96c-0.73,0-1.36-0.09-1.88-0.28
		c-0.53-0.18-0.94-0.38-1.25-0.57c-0.31-0.2-0.62-0.6-0.94-1.21c-0.32-0.61-0.55-1.11-0.68-1.51s-0.37-1.1-0.72-2.13
		C4.63,59.42,1.93,51.15,0,45.37L0.31,45.07z"/>
	<path class="st1" d="M38.51,68.19c0.7,0.28,1.05,0.99,1.05,2.13c0,1.1-0.6,2.03-1.8,2.76c-1.2,0.74-2.54,1.1-4.03,1.1
		c-0.96,0-1.94-0.18-2.91-0.53c-0.98-0.35-1.91-0.88-2.8-1.57c-0.89-0.69-1.61-1.64-2.17-2.85c-0.56-1.2-0.83-2.57-0.83-4.1
		c0-2.55,0.73-4.77,2.19-6.67c1.46-1.9,3.36-2.85,5.7-2.85c1.64,0,2.96,0.44,3.99,1.32c1.02,0.88,1.53,2.11,1.53,3.7
		c0,3.12-2.28,5.79-6.83,8.03c0.7,1.22,1.64,1.83,2.8,1.83c0.32,0,0.63-0.04,0.94-0.13c0.31-0.08,0.58-0.18,0.81-0.3
		c0.23-0.11,0.49-0.27,0.77-0.47c0.28-0.2,0.48-0.35,0.61-0.47c0.13-0.11,0.32-0.29,0.57-0.53C38.34,68.35,38.48,68.22,38.51,68.19z
		 M33.17,59.01c-0.61,0-1.19,0.42-1.73,1.25c-0.54,0.84-0.81,2.03-0.81,3.59c0,0.79,0.04,1.52,0.13,2.17
		c1.37-0.91,2.44-1.78,3.2-2.63c0.76-0.85,1.14-1.83,1.14-2.93C35.09,59.49,34.45,59.01,33.17,59.01z"/>
	<path class="st1" d="M58.97,62.71c-0.88,0.51-1.84,0.77-2.89,0.77c-1.93,0-2.89-0.99-2.89-2.97c0-0.88-0.09-1.32-0.26-1.32
		c-0.15,0-0.35,0.11-0.61,0.34c-0.26,0.23-0.61,0.66-1.03,1.3c-0.42,0.64-0.85,1.45-1.27,2.42c-0.42,0.98-0.88,2.32-1.38,4.02
		c-0.5,1.7-0.94,3.61-1.31,5.74c-0.53,0.25-1.2,0.38-2.02,0.38c-0.76,0-1.41-0.16-1.95-0.47c-0.54-0.31-0.94-0.67-1.2-1.08
		c-0.26-0.41-0.47-0.98-0.61-1.72c-0.15-0.74-0.23-1.34-0.24-1.83c-0.01-0.48-0.02-1.13-0.02-1.95c0-0.57,0.01-1.4,0.04-2.51
		c0.03-1.11,0.04-1.88,0.04-2.34c0-1.98-0.2-3.6-0.61-4.84c0.99-0.91,2.07-1.36,3.24-1.36c0.76,0,1.4,0.25,1.93,0.74
		c0.53,0.5,0.82,1.24,0.88,2.23c0,0.2-0.01,1.09-0.02,2.68c-0.01,1.59,0.01,2.82,0.07,3.7c1.17-3.17,2.45-5.39,3.86-6.65
		c1.4-1.26,2.66-1.89,3.77-1.89c1.02,0,1.85,0.15,2.48,0.45c0.63,0.3,1.08,0.76,1.36,1.38c0.28,0.62,0.46,1.24,0.55,1.85
		c0.09,0.61,0.13,1.41,0.13,2.4V62.71z"/>
	<path class="st1" d="M71.37,57.48c2.1,0,3.72,0.75,4.86,2.25c1.14,1.5,1.71,3.31,1.71,5.44c0,2.49-0.74,4.7-2.21,6.63
		c-1.48,1.93-3.48,2.89-6.02,2.89c-1.23-0.03-2.15-0.27-2.78-0.72c-0.63-0.45-0.94-1.02-0.94-1.7c0-0.45,0.14-0.98,0.42-1.57
		c0.28-0.59,0.65-1.06,1.12-1.4c0.2,0.42,0.55,0.79,1.03,1.08c0.48,0.3,0.99,0.45,1.51,0.45c0.7,0,1.3-0.46,1.8-1.38
		c0.5-0.92,0.75-2.16,0.75-3.72c0-1.22-0.27-2.29-0.81-3.23c-0.54-0.93-1.22-1.4-2.04-1.4c-1.31,0-2.45,1.02-3.42,3.06
		c-0.56,6.91-1.96,10.37-4.21,10.37c-0.73,0-1.33-0.16-1.8-0.47c0.32-1.13,0.56-2.35,0.72-3.65c0.16-1.3,0.26-2.43,0.28-3.38
		c0.03-0.95,0.04-2.42,0.04-4.4c0-6.09-0.34-11.51-1.01-16.27c0.67-0.37,1.31-0.55,1.93-0.55c1.61,0,2.72,0.53,3.33,1.59
		s0.92,2.63,0.92,4.7c0,0.14,0.01,0.67,0.02,1.57c0.01,0.91,0.02,1.89,0.02,2.95c0,1.06-0.01,2.12-0.04,3.17
		C67.98,58.25,69.59,57.48,71.37,57.48z"/>
	<path class="st1" d="M93.28,68.19c0.7,0.28,1.05,0.99,1.05,2.13c0,1.1-0.6,2.03-1.8,2.76c-1.2,0.74-2.54,1.1-4.03,1.1
		c-0.96,0-1.94-0.18-2.91-0.53c-0.98-0.35-1.91-0.88-2.8-1.57c-0.89-0.69-1.61-1.64-2.17-2.85c-0.56-1.2-0.83-2.57-0.83-4.1
		c0-2.55,0.73-4.77,2.19-6.67c1.46-1.9,3.36-2.85,5.7-2.85c1.64,0,2.96,0.44,3.99,1.32c1.02,0.88,1.53,2.11,1.53,3.7
		c0,3.12-2.28,5.79-6.83,8.03c0.7,1.22,1.64,1.83,2.8,1.83c0.32,0,0.64-0.04,0.94-0.13c0.31-0.08,0.58-0.18,0.81-0.3
		c0.23-0.11,0.49-0.27,0.77-0.47c0.28-0.2,0.48-0.35,0.61-0.47s0.32-0.29,0.57-0.53S93.25,68.22,93.28,68.19z M87.93,59.01
		c-0.61,0-1.19,0.42-1.73,1.25c-0.54,0.84-0.81,2.03-0.81,3.59c0,0.79,0.04,1.52,0.13,2.17c1.37-0.91,2.44-1.78,3.2-2.63
		c0.76-0.85,1.14-1.83,1.14-2.93C89.86,59.49,89.21,59.01,87.93,59.01z"/>
	<path class="st1" d="M114.13,67.59c0,2.18,0.53,3.78,1.58,4.8c-0.18,0.48-0.53,0.88-1.05,1.19c-0.53,0.31-1.08,0.47-1.66,0.47
		c-1.2,0-2.25-0.58-3.15-1.74c-0.91-1.16-1.36-2.79-1.36-4.89c0-1.08,0.03-2.41,0.09-3.99c0.06-1.59,0.09-2.49,0.09-2.72
		c0-0.59-0.12-0.89-0.35-0.89c-0.18,0-0.39,0.08-0.66,0.23c-0.26,0.16-0.64,0.51-1.14,1.06c-0.5,0.55-1,1.27-1.51,2.15
		c-0.51,0.88-1.09,2.14-1.73,3.78c-0.64,1.64-1.24,3.54-1.8,5.69c-0.53,0.25-1.11,0.38-1.75,0.38c-0.82,0-1.49-0.14-2.02-0.43
		c-0.53-0.28-0.91-0.71-1.14-1.3c-0.23-0.58-0.39-1.15-0.46-1.72c-0.07-0.57-0.11-1.27-0.11-2.12c0-0.88,0.05-2.17,0.15-3.89
		c0.1-1.71,0.15-2.91,0.15-3.59c0-1.39-0.13-2.55-0.39-3.48c1.02-0.91,2.13-1.36,3.33-1.36c0.76,0,1.39,0.25,1.88,0.74
		c0.5,0.5,0.74,1.24,0.74,2.23c0,0.25-0.04,1.15-0.13,2.68c-0.09,1.53-0.13,2.76-0.13,3.7c1.31-2.29,2.54-4.06,3.68-5.29
		c1.14-1.23,1.99-1.96,2.56-2.19c0.57-0.23,1.19-0.34,1.86-0.34c1.84,0,3.06,0.53,3.66,1.59c0.6,1.06,0.9,2.56,0.9,4.48
		c0,0.82-0.02,1.71-0.07,2.66C114.15,66.44,114.13,67.14,114.13,67.59z"/>
	<path class="st1" d="M133.8,65.68c0,0.93,0.24,2.09,0.72,3.46c0.48,1.38,1,2.33,1.56,2.87c-0.53,0.42-1.24,0.64-2.15,0.64
		c-1.23,0-2.15-0.48-2.78-1.44c-0.63-0.96-1.01-2.03-1.16-3.19c-0.58,1.59-1.62,2.92-3.11,3.99c-1.49,1.08-2.95,1.62-4.38,1.62
		c-1.61,0-2.94-0.57-4.01-1.7c-1.07-1.13-1.6-2.58-1.6-4.33c0-3,1.04-5.68,3.13-8.03c2.09-2.35,4.61-3.53,7.56-3.53
		c1.55,0,2.96,0.47,4.25,1.4c1.28,0.93,2.06,1.91,2.32,2.93C133.92,61.39,133.8,63.16,133.8,65.68z M123.46,69.25
		c1.11,0,2.28-1.14,3.53-3.42c1.24-2.28,2.01-4.27,2.3-5.97c-0.32-0.79-0.8-1.19-1.45-1.19c-1.11,0-2.28,1.07-3.5,3.21
		s-1.84,3.97-1.84,5.5c0,0.48,0.09,0.91,0.26,1.3C122.94,69.06,123.17,69.25,123.46,69.25z"/>
</g>
<g>
	<path class="st2" d="M34.2,33.92c3.52,5.17,5.67,7.78,12.11,8.17c6.16,0.37,10.23,2.49,12.89,6.28c-4.5-2.03-8.95-3.24-13.17-3.39
		C39.3,44.74,35.27,40.5,34.2,33.92z"/>
	<g>
		<path class="st1" d="M60.7,44.7c-2.21-14.78-8.14-23.97-22-21.89c-3.81,0.57-6.85-2.86-9.56-7.94
			c3.11,15.89,10.65,25.02,22.11,25.22C54.66,40.15,57.72,41.91,60.7,44.7z"/>
		<path class="st1" d="M65.59,44.7c2.21-14.78,8.14-23.97,22-21.89c3.81,0.57,6.85-2.86,9.56-7.94
			c-3.11,15.89-10.65,25.02-22.11,25.22C71.62,40.15,68.57,41.91,65.59,44.7z"/>
	</g>
	<path class="st2" d="M92.09,33.92c-3.52,5.17-5.67,7.78-12.11,8.17c-6.16,0.37-10.23,2.49-12.89,6.28
		c4.5-2.03,8.95-3.24,13.17-3.39C86.98,44.74,91.01,40.5,92.09,33.92z"/>
</g>
<path class="st2" d="M63.14,0c-2.83,10.08-12.05,10.92-10.32,18.41c3.6,9.3,8.43,7.35,10.32,20.67
	c1.89-13.32,6.72-11.37,10.32-20.67C75.2,10.92,65.98,10.08,63.14,0z"/>
</svg>
