<?xml version="1.0" encoding="utf-8"?>
<!-- Generator: Adobe Illustrator 18.1.1, SVG Export Plug-In . SVG Version: 6.00 Build 0)  -->
<svg version="1.1" id="Layer_1" xmlns="http://www.w3.org/2000/svg" xmlns:xlink="http://www.w3.org/1999/xlink" x="0px" y="0px"
	 viewBox="0 0 113.4 155.9" enable-background="new 0 0 113.4 155.9" xml:space="preserve">
<g>
	<g>
		<path fill="#FFFFFF" d="M57.1,2.4c-14.9,0-28.4,6.2-38,16.1C9.3,28.1,3.3,41.4,3.3,56.2c0,39.7,52.8,98.4,52.8,98.4
			s0.3-0.4,0.9-1.1c0,0,0.1,0.1,0.1,0.1s52.8-58.7,52.8-98.4C109.9,26.1,86.2,2.4,57.1,2.4z"/>
		<path fill="#98C640" d="M56.1,156.1l-0.7-0.8c-2.2-2.4-53.1-59.5-53.1-99.1C2.3,41.6,8,28,18.4,17.8C28.6,7.2,42.3,1.4,57.1,1.4
			c29.7,0,53.8,24.2,53.8,53.8c0,39.6-50.9,96.6-53.1,99l-0.8,0.8l0-0.1c-0.1,0.1-0.2,0.2-0.2,0.2L56.1,156.1z M57.1,3.4
			C42.9,3.4,29.6,9,19.8,19.2c-10,9.8-15.5,23-15.5,37c0,36.3,45.4,89.6,51.8,96.9c0.1-0.1,0.1-0.1,0.2-0.2L57,152l0.1,0.1
			c6.4-7.3,51.8-60.6,51.8-96.9C108.9,26.6,85.6,3.4,57.1,3.4z"/>
	</g>
	<g>
		<g>
			<path fill="#97C24C" d="M19.2,68.8c4.5,6.7,7.3,10,15.6,10.5c7.9,0.5,13.2,3.2,16.6,8.1c-5.8-2.6-11.5-4.2-17-4.4
				C25.8,82.7,20.6,77.2,19.2,68.8z"/>
			<g>
				<path fill="#51AA51" d="M53.4,82.7C50.6,63.6,42.9,51.8,25,54.4c-4.9,0.7-8.8-3.7-12.3-10.2c4,20.5,13.7,32.3,28.5,32.5
					C45.6,76.8,49.6,79.1,53.4,82.7z"/>
				<path fill="#51AA51" d="M59.7,82.7c2.8-19.1,10.5-30.9,28.4-28.2c4.9,0.7,8.8-3.7,12.3-10.2c-4,20.5-13.7,32.3-28.5,32.5
					C67.5,76.8,63.6,79.1,59.7,82.7z"/>
			</g>
			<path fill="#97C24C" d="M93.9,68.8c-4.5,6.7-7.3,10-15.6,10.5c-7.9,0.5-13.2,3.2-16.6,8.1c5.8-2.6,11.5-4.2,17-4.4
				C87.3,82.7,92.5,77.2,93.9,68.8z"/>
		</g>
		<path fill="#97C24C" d="M56.5,25C52.9,38,41,39.1,43.2,48.8c4.6,12,10.9,9.5,13.3,26.6c2.4-17.2,8.7-14.7,13.3-26.6
			C72.1,39.1,60.2,38,56.5,25z"/>
	</g>
</g>
</svg>
