<svg xmlns="http://www.w3.org/2000/svg" viewBox="0 0 19.682 19.681">
  <g id="Сгруппировать_4" data-name="Сгруппировать 4" transform="translate(-1130.345 -28.991)">
    <path id="Контур_6" data-name="Контур 6" d="M1144.909,40.3c-.038-.018-1.473-.725-1.728-.816a.98.98,0,0,0-.334-.074.569.569,0,0,0-.484.286c-.143.213-.577.72-.711.872-.018.02-.041.043-.056.043s-.235-.091-.3-.12a7.565,7.565,0,0,1-2.868-2.548.225.225,0,0,1-.024-.056.468.468,0,0,1,.085-.1c.078-.077.162-.179.244-.277.039-.047.078-.094.116-.138a1.531,1.531,0,0,0,.233-.37l.032-.065a.669.669,0,0,0-.019-.629c-.034-.068-.64-1.53-.7-1.684-.155-.371-.36-.543-.644-.543l-.111,0a3.455,3.455,0,0,0-1.193.307,2.5,2.5,0,0,0-.926,2.125,4.583,4.583,0,0,0,.992,2.521c.008.01.021.03.041.059a9.342,9.342,0,0,0,4.009,3.48,6.534,6.534,0,0,0,2.422.62h0a3.748,3.748,0,0,0,.394-.024l.07-.006a2.55,2.55,0,0,0,1.775-1.256,1.986,1.986,0,0,0,.113-1.308A.906.906,0,0,0,1144.909,40.3Z" fill="#fff"/>
    <path id="Контур_7" data-name="Контур 7" d="M1140.361,28.991a9.642,9.642,0,0,0-9.667,9.594,9.52,9.52,0,0,0,1.326,4.852l-1.661,4.9a.255.255,0,0,0,.242.337.235.235,0,0,0,.078-.012l5.107-1.622a9.737,9.737,0,0,0,4.575,1.14,9.594,9.594,0,1,0,0-19.187Zm0,17.189a7.655,7.655,0,0,1-4.213-1.256.252.252,0,0,0-.14-.042.259.259,0,0,0-.078.012l-2.558.813.826-2.436a.258.258,0,0,0-.036-.233,7.491,7.491,0,0,1-1.458-4.453,7.657,7.657,0,1,1,7.657,7.6Z" fill="#fff"/>
  </g>
</svg>
