<?xml version="1.0" encoding="utf-8"?>
<!-- Generator: Adobe Illustrator 18.1.1, SVG Export Plug-In . SVG Version: 6.00 Build 0)  -->
<svg version="1.1" baseProfile="tiny" id="Layer_1" xmlns="http://www.w3.org/2000/svg" xmlns:xlink="http://www.w3.org/1999/xlink"
	 x="0px" y="0px" viewBox="0 0 481.89 481.89" xml:space="preserve">
<g>
	<g>
		<path fill="#FFFFFF" d="M158.341,195.945c-12.359-12.359-32.185-12.359-44.545-0.257c-12.617,12.359-12.617,32.185-0.257,44.545
			l75.185,75.7c5.922,5.922,13.904,9.269,22.401,9.269l0,0c8.239,0,16.221-3.347,22.144-9.269L462.171,88.317
			c12.359-12.359,12.359-32.185,0.257-44.545c-12.359-12.359-32.185-12.359-44.545,0l-69.263,68.748
			c-36.82-38.108-88.059-59.994-141.873-59.994c-108.915,0-197.49,88.574-197.49,197.49s88.574,197.489,197.49,197.489
			c87.802,0,163.759-56.389,189.25-140.328c5.15-16.736-4.377-34.245-21.114-39.395c-16.736-4.892-34.245,4.377-39.395,21.114
			c-16.994,56.131-70.035,95.526-128.742,95.526c-74.155,0-134.406-60.251-134.406-134.406S132.593,115.61,206.748,115.61
			c36.82,0,71.838,15.449,97.071,41.712l-92.436,91.921L158.341,195.945z"/>
	</g>
</g>
</svg>
